<?xml version="1.0" encoding="utf-8"?>
<!-- Generator: Adobe Illustrator 26.4.1, SVG Export Plug-In . SVG Version: 6.00 Build 0)  -->
<svg version="1.1" id="Layer_1" xmlns="http://www.w3.org/2000/svg" xmlns:xlink="http://www.w3.org/1999/xlink" x="0px" y="0px"
	 viewBox="0 0 16 16" style="enable-background:new 0 0 16 16;" xml:space="preserve">
<style type="text/css">
	.st0{fill:#E36020;}
</style>
<g transform="rotate(0 670.0001 290.6117)">
	<g transform="matrix(1 0 0 1 0 0)">
		<g>
			<path class="st0" d="M7.34,10.73H7.32c0.01-0.02,0.02-0.04,0.03-0.04V8.98c0-0.03-0.02-0.04-0.04-0.05H7.28v0.01
				c-0.01,0-0.01-0.01-0.02-0.01C7.17,8.91,7.07,8.9,6.99,8.87c0,0.05-0.04,0.09-0.11,0.07C6.83,8.93,6.81,8.98,6.77,8.99
				C6.73,8.92,6.8,8.87,6.81,8.82c-0.01,0-0.02-0.01-0.03-0.01C6.72,8.85,6.68,8.92,6.62,8.97C6.58,8.99,6.55,9.02,6.51,9.04
				C6.46,9.06,6.43,9.07,6.38,9.03C6.37,9.01,6.36,8.98,6.37,8.97c0.04-0.03,0.08,0,0.12,0.01C6.5,8.9,6.46,8.78,6.6,8.76
				c0.02,0,0.02-0.01,0.01-0.03C6.12,8.45,5.8,7.91,5.85,7.29C5.86,7.19,5.87,7.09,5.9,7C5.89,6.99,5.88,6.97,5.87,6.97
				C5.85,6.95,5.84,6.92,5.84,6.89c0.01-0.04,0.03-0.03,0.04-0.03h0.06c0.16-0.41,0.49-0.73,0.91-0.88C6.86,5.96,6.88,5.95,6.9,5.94
				c0.02-0.01,0.02,0.01,0.02,0.02C7.03,5.92,7.15,5.9,7.25,5.89c0.56-0.04,1.06,0.2,1.36,0.61C8.64,6.5,8.65,6.49,8.66,6.47
				C8.68,6.49,8.7,6.51,8.72,6.52C8.72,6.55,8.7,6.57,8.67,6.58C8.81,6.79,8.9,7.05,8.92,7.32c0,0.03,0.03,0.04,0.05,0.04h1.69
				c0.02-0.04,0.08-0.07,0.12-0.11c0.08-0.07,0.09,0.03,0.13,0.04c0.02,0.01,0.02,0.04,0.01,0.06h0.56
				C11.48,7.33,11.5,7.31,11.5,7.3c0.06-0.06,0.08-0.14,0.12-0.21c0.01-0.02,0.01-0.04,0.04-0.04c0.03,0,0.02,0.02,0.03,0.04
				c0.04,0.08,0.09,0.17-0.04,0.21c-0.02,0.01-0.04,0.04,0.01,0.05c0.01,0,0.02,0,0.03,0.01h0.74c0.04-0.04,0.08-0.06,0.15-0.04
				c0,0.02,0,0.04-0.01,0.04h1.09c0.03,0,0.05-0.03,0.05-0.05c-0.02-1.14-0.35-2.2-0.91-3.12c-0.04,0.11-0.05,0.22-0.13,0.33
				c-0.04-0.08-0.04-0.13,0-0.2c0.04-0.04,0.04-0.1,0.06-0.15c0.01-0.02,0-0.04,0.03-0.04c-0.06-0.1-0.13-0.2-0.2-0.29v0.02
				c-0.01,0.02-0.03,0.04-0.04,0.05c-0.02-0.02-0.04-0.04-0.03-0.05c0.01-0.02,0.01-0.05,0.04-0.05h0.01
				c-0.88-1.23-2.21-2.12-3.74-2.47C8.81,1.34,8.81,1.36,8.8,1.38c0,0-0.02,0-0.03-0.01C8.75,1.34,8.76,1.33,8.79,1.31
				C8.2,1.18,7.59,1.13,6.96,1.18C7,1.18,7.01,1.24,7.05,1.23C7.06,1.27,7.03,1.3,7.02,1.29C6.98,1.27,6.91,1.26,6.9,1.21
				C6.89,1.18,6.91,1.18,6.94,1.18C6.7,1.19,6.45,1.23,6.2,1.27C5.89,1.33,5.58,1.41,5.28,1.51c0,0.02-0.02,0.03-0.03,0.03
				S5.24,1.53,5.24,1.53C5.06,1.59,4.89,1.66,4.72,1.74c0.01,0.01,0.01,0.03,0.01,0.04c0,0.03-0.02,0.04-0.04,0.04
				c-0.04,0-0.02-0.03-0.03-0.04V1.77c-0.2,0.09-0.39,0.2-0.56,0.3C4.11,2.1,4.1,2.13,4.06,2.14c-0.01-0.03-0.01-0.04,0-0.05
				C2.79,2.87,1.81,4.1,1.37,5.56c0,0,0.01,0,0.01,0.01c0.04,0.04,0.01,0.07-0.01,0.12C1.36,5.68,1.35,5.66,1.34,5.65
				c-0.05,0.19-0.1,0.38-0.13,0.57C1.16,6.51,1.12,6.8,1.1,7.08V7.1c0.01,0.03,0,0.04-0.01,0.05C1.08,7.58,1.1,8.01,1.16,8.42
				c0.01,0,0.02-0.01,0.03-0.01C1.21,8.43,1.2,8.46,1.17,8.48C1.2,8.67,1.25,8.84,1.29,9.02c0.04-0.04,0.12-0.04,0.16-0.08
				c0.01-0.01,0.04,0.02,0.04,0.04c0,0.04-0.12,0.12-0.18,0.12c0.23,0.84,0.65,1.61,1.18,2.27c0.01-0.01,0.03-0.01,0.04-0.02
				c0.03-0.01,0.07,0.01,0.06,0.04c0,0.03-0.03,0.04-0.04,0.05c0.27,0.32,0.57,0.61,0.91,0.87c0-0.02,0-0.03,0.01-0.04
				c0-0.01,0.02-0.04,0.04-0.02c0.04,0.04,0.02,0.07,0.02,0.12c0.04,0.03,0.06,0.05,0.1,0.07c0.02,0.01,0.04,0.02,0.04,0.04
				c0.58,0.42,1.22,0.74,1.91,0.94c0.01-0.01,0.02-0.01,0.04-0.01c0.03,0,0.06,0.01,0.06,0.04c0.52,0.14,1.06,0.22,1.6,0.23
				c0.03,0,0.05-0.03,0.05-0.05v-2.89L7.34,10.73L7.34,10.73L7.34,10.73z M12.59,6.98c-0.02,0-0.03-0.02-0.03-0.03
				c0-0.02,0.02-0.03,0.03-0.03c0.02,0,0.03,0,0.04,0.03C12.62,6.96,12.6,6.97,12.59,6.98z M12.83,6.83c-0.02,0-0.04-0.02-0.04-0.04
				c0-0.04,0.03-0.02,0.04-0.03c0.02,0,0.04,0,0.04,0.03C12.88,6.81,12.86,6.83,12.83,6.83z M12.95,5.24v-0.1
				C12.98,5.17,12.99,5.2,12.95,5.24z M13.3,6.48c-0.01-0.03-0.03-0.04-0.04-0.07c0.01,0,0.02-0.01,0.03,0
				C13.33,6.43,13.3,6.45,13.3,6.48z M13.32,5.92c0.04,0,0.09,0,0.12-0.04c0.01-0.02,0.04-0.04,0.05-0.01
				c0.01,0.02,0.02,0.04,0,0.04c-0.05,0.03-0.08,0.12-0.19,0.08c-0.01,0-0.06,0.04-0.06-0.03C13.22,5.89,13.28,5.92,13.32,5.92
				L13.32,5.92z M12.97,4.93c0.02,0,0.05-0.01,0.04,0.03c0,0.02-0.02,0.04-0.04,0.04c-0.03,0-0.04-0.03-0.04-0.04
				C12.93,4.92,12.95,4.93,12.97,4.93z M12.84,4.59c0.02,0.01,0.06,0,0.06,0.04c-0.02,0.03-0.04,0.06-0.07,0.05
				c-0.03,0-0.05-0.03-0.05-0.06C12.78,4.6,12.81,4.58,12.84,4.59L12.84,4.59z M12.63,4.64c0.01,0.05,0.03,0.11,0.09,0.12
				c0.04,0.01,0.02,0.04,0,0.06c-0.02,0.02-0.04,0.04-0.05,0c-0.04-0.05-0.08-0.11-0.08-0.16c-0.01-0.04,0-0.06,0.02-0.06
				C12.61,4.61,12.63,4.63,12.63,4.64L12.63,4.64z M12.57,4.2c0.02,0.03,0.04,0.04,0.04,0.05c0,0.02-0.02,0.04-0.04,0.03
				c-0.02,0-0.04-0.01-0.04-0.04C12.55,4.23,12.56,4.21,12.57,4.2L12.57,4.2z M6.43,3.81c0-0.04-0.03-0.07,0.02-0.1
				c0.01-0.01,0.04,0,0.04,0.01C6.5,3.77,6.48,3.81,6.43,3.81z M6.79,3.73C6.77,3.68,6.72,3.66,6.76,3.61
				C6.77,3.6,6.79,3.57,6.81,3.6C6.85,3.65,6.82,3.68,6.79,3.73z M6.77,3.07c0.01-0.02,0-0.04,0.02-0.04c0.04,0,0.04,0.03,0.04,0.06
				c0,0.02-0.01,0.04-0.03,0.04C6.78,3.11,6.76,3.09,6.77,3.07z M6.93,3.49C6.92,3.48,6.91,3.47,6.92,3.45
				c0.04-0.06,0.06,0.03,0.09,0C6.99,3.49,6.98,3.52,6.93,3.49z M7.25,3.65c-0.02,0-0.03-0.02-0.04-0.03
				C7.24,3.6,7.25,3.57,7.28,3.57c0.02,0,0.02,0.02,0.02,0.03C7.3,3.63,7.28,3.65,7.25,3.65L7.25,3.65z M7.34,5.85
				c-0.02,0-0.04-0.01-0.04-0.04c0-0.03,0.03-0.03,0.04-0.04C7.37,5.76,7.37,5.8,7.38,5.8C7.38,5.83,7.37,5.85,7.34,5.85z
				 M7.32,3.01c0-0.03,0.01-0.04,0.04-0.03c0.01,0,0.04,0,0.03,0.02c0,0.02-0.02,0.04-0.04,0.04S7.33,3.01,7.32,3.01L7.32,3.01z
				 M8.55,3C8.55,2.99,8.54,2.98,8.54,2.97c0-0.02,0.02-0.03,0.04-0.03s0.02,0.02,0.02,0.04C8.58,2.99,8.57,3,8.55,3L8.55,3z
				 M8.74,5.34c-0.02,0-0.03-0.02-0.03-0.04c0-0.03,0.02-0.03,0.04-0.03c0.03,0,0.03,0.02,0.03,0.04C8.78,5.34,8.76,5.35,8.74,5.34z
				 M8.93,5.62C8.9,5.62,8.9,5.6,8.9,5.58c0-0.03,0.02-0.04,0.04-0.04s0.02,0.03,0.02,0.04C8.97,5.61,8.97,5.63,8.93,5.62z
				 M8.96,5.93c-0.02-0.03-0.02-0.05,0-0.09C8.98,5.88,8.98,5.9,8.96,5.93z M9.55,5.87C9.47,5.8,9.56,5.78,9.59,5.73
				C9.6,5.79,9.58,5.82,9.55,5.87z M9.5,5.52C9.51,5.51,9.51,5.49,9.53,5.5c0.03,0.03,0.02,0.06,0,0.12
				C9.51,5.57,9.47,5.56,9.5,5.52z M9.54,5.41C9.51,5.42,9.5,5.4,9.5,5.38c0.01-0.04,0.04-0.04,0.07-0.04c0.02,0,0.04,0,0.04,0.03
				C9.6,5.39,9.58,5.4,9.54,5.41z M9.7,5.73c-0.02,0-0.03,0-0.03-0.02S9.69,5.69,9.7,5.7c0.02,0,0.03,0.01,0.03,0.03
				C9.74,5.72,9.72,5.72,9.7,5.73L9.7,5.73z M9.84,6.32c-0.02-0.04-0.01-0.09,0-0.13C9.85,6.23,9.85,6.28,9.84,6.32z M9.83,5.72
				c-0.03,0-0.04-0.03-0.04-0.04C9.78,5.65,9.81,5.64,9.83,5.64c0.03-0.01,0.04,0.02,0.04,0.04C9.86,5.71,9.85,5.72,9.83,5.72z
				 M10.46,6.86c0,0.02-0.01,0.03-0.03,0.03c-0.02-0.01-0.04-0.02-0.04-0.04c0-0.02,0.02-0.02,0.04-0.02
				C10.46,6.84,10.46,6.84,10.46,6.86L10.46,6.86z M10.44,6.73c-0.03-0.06,0.03-0.08,0.03-0.12C10.47,6.65,10.46,6.68,10.44,6.73z
				 M10.45,4.71c0-0.02,0.01-0.04,0.03-0.04c0.02,0,0.05,0.01,0.04,0.04c0,0.02-0.01,0.04-0.04,0.04
				C10.46,4.75,10.45,4.73,10.45,4.71L10.45,4.71z M10.55,5.37c0.02,0.04,0.08,0.08,0.01,0.12c-0.03,0.02-0.06,0.03-0.08-0.01
				C10.46,5.41,10.54,5.41,10.55,5.37z M10.61,6.02c0,0.02,0,0.09-0.05,0.07c-0.04-0.02-0.1-0.04-0.07-0.11
				c0.03-0.07,0.06-0.13,0.14-0.17C10.65,5.88,10.61,5.95,10.61,6.02L10.61,6.02z M10.6,5.32c0-0.03,0.02-0.03,0.04-0.04
				c0.04-0.01,0.03,0.02,0.03,0.04c0,0.02,0,0.04-0.03,0.04C10.61,5.36,10.61,5.34,10.6,5.32z M10.64,5.57
				c-0.03-0.05,0.01-0.07,0.04-0.1C10.72,5.53,10.7,5.56,10.64,5.57z M10.57,5.17c-0.02,0.02-0.04,0.03-0.05,0.02
				c-0.02-0.01-0.02-0.04-0.01-0.04c0.02-0.02,0.04-0.02,0.06,0.01c0.04,0.02,0.1-0.03,0.16,0.03C10.67,5.18,10.62,5.18,10.57,5.17z
				 M10.61,5.02C10.6,5,10.63,4.99,10.64,4.99C10.68,5,10.7,5.03,10.69,5.07c0,0.02-0.03,0.03-0.04,0.04
				C10.63,5.09,10.62,5.06,10.61,5.02L10.61,5.02z M10.72,4.52c0-0.04,0.02-0.04,0.03-0.04c0.02,0,0.03,0.01,0.03,0.02
				c0,0.02-0.02,0.03-0.04,0.03C10.74,4.53,10.72,4.52,10.72,4.52z M10.81,5.62c-0.02,0.01-0.04-0.02-0.04-0.03
				c0-0.03,0.02-0.04,0.04-0.04c0.02,0,0.03,0.01,0.03,0.03C10.83,5.59,10.82,5.61,10.81,5.62z M10.87,5.8
				c0.06,0.05,0.13,0.05,0.2,0.06c-0.02,0.05-0.04,0.09-0.1,0.1C10.93,5.96,10.92,5.95,10.87,5.8L10.87,5.8z M10.98,5.67
				c-0.01,0.02-0.02,0.04-0.04,0.05c-0.02-0.01-0.04-0.02-0.04-0.04c0-0.03,0.01-0.04,0.04-0.04C10.97,5.64,10.98,5.65,10.98,5.67z
				 M10.97,5.48c0-0.02,0.01-0.03,0.03-0.03c0.02,0,0.03,0.01,0.03,0.03C11.01,5.48,11,5.49,10.99,5.49
				C10.98,5.5,10.97,5.49,10.97,5.48z M11.03,6.15C11,6.14,10.98,6.13,10.98,6.1s0.04-0.04,0.05-0.04c0.03-0.01,0.03,0.02,0.03,0.04
				C11.07,6.12,11.06,6.14,11.03,6.15L11.03,6.15z M11.07,5.48c-0.01-0.01-0.02-0.02-0.02-0.04c-0.01-0.02,0.01-0.03,0.03-0.03
				c0.01,0,0.03,0,0.03,0.02C11.11,5.45,11.09,5.46,11.07,5.48L11.07,5.48z M11.11,5.24c0.01,0.06-0.04,0.1-0.07,0.13
				C11,5.4,10.95,5.41,10.91,5.39c-0.04-0.02-0.02-0.07-0.01-0.11c0-0.04,0.03-0.08,0.04-0.12C11,5.01,11.06,5,11.21,5.09
				C11.12,5.11,11.09,5.17,11.11,5.24L11.11,5.24z M11.26,5.4c-0.02,0.02-0.04,0.02-0.04,0c-0.02-0.04-0.04-0.08,0.02-0.12
				C11.21,5.33,11.32,5.34,11.26,5.4z M11.28,5.25c-0.02-0.04-0.04-0.08,0-0.12c0.01-0.01,0.02-0.02,0.03,0
				c0.03,0.04,0.04,0.08,0.04,0.1c0.01,0.05,0.01,0.09-0.03,0.1c-0.03,0-0.04-0.03-0.04-0.05V5.25L11.28,5.25z M11.21,5.82
				c-0.01-0.01-0.03-0.03-0.04-0.04c-0.02-0.04,0.1-0.16,0.14-0.15c0.01,0,0.03,0.02,0.03,0.03C11.36,5.67,11.24,5.82,11.21,5.82z
				 M11.37,4.9c-0.04-0.05-0.04-0.1,0.01-0.13c0.03-0.02,0.04-0.01,0.05,0.01C11.45,4.84,11.41,4.86,11.37,4.9z M11.52,5.49
				c-0.06-0.02-0.11-0.11-0.08-0.2c0.02,0.1,0.02,0.11,0.08,0.06c0.03-0.02,0.04-0.01,0.06,0.01c0.03,0.03,0.02,0.06,0,0.09
				C11.57,5.47,11.56,5.5,11.52,5.49z M11.57,3.97c0.03,0,0.05,0.02,0.05,0.05c-0.01,0.06-0.07,0.05-0.12,0.09
				c-0.01-0.02-0.04-0.04-0.03-0.05C11.5,4.02,11.52,3.97,11.57,3.97z M11.55,3.45c0-0.01-0.01-0.02-0.01-0.02
				c0-0.01,0.01-0.02,0.02-0.02c0.01-0.01,0.02,0,0.02,0.02C11.58,3.44,11.57,3.44,11.55,3.45z M11.49,4.93
				c0.03-0.04,0.08-0.06,0.12-0.09c0.04-0.03,0.07,0.04,0.12,0.07C11.65,4.94,11.59,4.97,11.53,5c-0.03,0.01-0.04,0.02-0.06-0.02
				C11.45,4.96,11.48,4.95,11.49,4.93L11.49,4.93z M11.63,6.24c-0.04-0.01-0.04-0.04-0.05-0.08c-0.01-0.03,0.02-0.04,0.04-0.04
				c0.04,0,0.05,0.01,0.04,0.05C11.68,6.2,11.64,6.24,11.63,6.24z M11.69,5.92c-0.03-0.05-0.09-0.09-0.02-0.15
				c0.04-0.03,0.04,0,0.05,0.02C11.79,5.85,11.74,5.88,11.69,5.92z M11.88,6.33c-0.01-0.01-0.02-0.02-0.02-0.03
				c0.03-0.03,0.05-0.04,0.1-0.01C11.94,6.32,11.93,6.36,11.88,6.33z M11.88,6.04c0-0.04,0.03-0.03,0.05-0.03
				c0.02,0,0.05,0,0.04,0.03c0,0.03-0.04,0.04-0.07,0.04C11.89,6.07,11.87,6.06,11.88,6.04z M12.35,5.01c-0.04,0.02-0.06,0.02-0.1,0
				C12.28,5,12.32,5.01,12.35,5.01z M12.12,7.24c0,0.04-0.05,0.06-0.1,0.05c-0.04-0.01-0.08-0.03-0.08-0.08
				c0-0.04,0.04-0.05,0.07-0.04C12.06,7.19,12.13,7.18,12.12,7.24z M12.02,4.78c0.03,0,0.04,0.01,0.04,0.04
				c0.01,0.02-0.01,0.04-0.03,0.04c-0.03,0-0.04-0.02-0.04-0.04C12.01,4.8,12.01,4.78,12.02,4.78L12.02,4.78z M11.89,4.83
				c0.03,0.01,0.04,0.03,0.04,0.05c0.01,0,0.01,0.01,0.02,0.01c0.02,0.03,0.06-0.01,0.06,0.04c0,0.01-0.01,0.02-0.01,0.02
				c-0.04,0.01-0.05-0.01-0.07-0.04c-0.04,0-0.06-0.01-0.06-0.04C11.86,4.85,11.88,4.83,11.89,4.83z M11.76,4.73
				c0.01,0,0.03,0,0.03,0.03c-0.01,0.01-0.02,0.03-0.03,0.04c-0.01-0.01-0.03-0.02-0.03-0.03C11.72,4.74,11.75,4.74,11.76,4.73z
				 M11.7,4.29c-0.04-0.04-0.08-0.06-0.04-0.11c0.02-0.02,0.04-0.02,0.05-0.01C11.76,4.21,11.7,4.23,11.7,4.29z M11.7,3.59
				c0,0.03-0.03,0.04-0.04,0.04s-0.04-0.01-0.05-0.04c0.01-0.02,0.02-0.04,0.04-0.04C11.68,3.54,11.7,3.56,11.7,3.59z M11.59,3.05
				c0.01-0.02,0.03-0.04,0.04-0.05c0,0,0.03,0.02,0.04,0.03c-0.01,0.03-0.02,0.05-0.04,0.05C11.6,3.08,11.58,3.08,11.59,3.05z
				 M11.55,3.1c0,0,0.02,0.03,0.03,0.04c-0.01,0.03-0.02,0.05-0.04,0.05c-0.02,0-0.03-0.03-0.03-0.04
				C11.5,3.13,11.52,3.11,11.55,3.1z M11.47,3.76c0-0.04,0.01-0.07,0.05-0.07c0.04,0.01,0.03,0.04,0.03,0.06
				c0,0.04-0.03,0.08-0.06,0.08C11.46,3.83,11.48,3.79,11.47,3.76L11.47,3.76z M11.47,4.24c0.01,0.03-0.02,0.04-0.04,0.04
				c-0.03-0.04-0.09-0.05-0.1-0.12c0-0.01,0.02-0.04,0.04-0.03C11.4,4.18,11.46,4.19,11.47,4.24L11.47,4.24z M11.38,2.87
				c0.02,0,0.03,0.01,0.03,0.03c-0.01,0.02-0.02,0.03-0.04,0.04c-0.01-0.02-0.03-0.04-0.03-0.04C11.34,2.86,11.37,2.87,11.38,2.87z
				 M11.27,3.57c0.04,0.04,0.1,0.07,0.13,0.11c0.03,0.03,0.04,0.05-0.01,0.09c-0.05,0.04-0.06-0.01-0.07-0.04
				C11.31,3.67,11.25,3.62,11.27,3.57L11.27,3.57z M11.3,4.75c0,0.04-0.04,0.05-0.06,0.07c-0.04,0-0.06-0.02-0.06-0.04
				c0-0.04,0.04-0.06,0.07-0.06C11.27,4.71,11.3,4.73,11.3,4.75L11.3,4.75z M11.19,2.72c0.02,0,0.04,0.02,0.04,0.03
				c0,0.02-0.01,0.04-0.03,0.04c-0.02,0-0.03-0.02-0.03-0.04C11.17,2.74,11.17,2.72,11.19,2.72z M11.07,2.81
				c0.01-0.02,0.03-0.01,0.04,0c0.04,0.05,0.02,0.09-0.02,0.14C11.04,2.91,11.04,2.86,11.07,2.81L11.07,2.81z M11.05,4.83
				c0.01,0.02-0.02,0.04-0.04,0.04c-0.04,0.01-0.04-0.04-0.05-0.04c0-0.03,0.02-0.04,0.04-0.04C11.02,4.78,11.05,4.8,11.05,4.83z
				 M10.98,4.02c-0.04-0.06-0.08-0.11-0.08-0.18C10.99,3.87,10.98,3.93,10.98,4.02z M10.9,4.91c0,0-0.01,0.02-0.02,0.02
				c-0.04,0.01-0.04-0.03-0.07-0.07C10.87,4.87,10.89,4.87,10.9,4.91z M10.55,3.52c0.01-0.04,0.04-0.04,0.06-0.03
				c0.02,0.01,0.06,0.02,0.06,0.05c0.04-0.01,0.06,0.03,0.11,0.03c0.03,0,0.03,0.03,0.01,0.04c-0.03,0.03-0.03,0.09-0.09,0.06
				c-0.03-0.02-0.05-0.04-0.09-0.06h-0.01C10.58,3.58,10.55,3.57,10.55,3.52L10.55,3.52z M10.42,3.86c0.04-0.04,0.08-0.08,0.12-0.12
				c0.01-0.01,0.02-0.04,0.04-0.02c0.01,0.01,0.02,0.03,0.02,0.04c-0.04,0.07-0.09,0.12-0.14,0.17c-0.03,0.02-0.03-0.01-0.04-0.02
				C10.4,3.89,10.39,3.88,10.42,3.86L10.42,3.86z M10.38,5.35c0.03,0,0.04,0.02,0.04,0.04c-0.01,0.02-0.01,0.05-0.04,0.05
				c-0.02-0.02-0.04-0.04-0.04-0.06C10.34,5.37,10.36,5.35,10.38,5.35L10.38,5.35z M10.34,5.01c0.01,0.04-0.02,0.04-0.04,0.04
				s-0.05,0-0.07-0.03c0.02-0.02,0.03-0.05,0.05-0.05C10.29,4.97,10.33,4.98,10.34,5.01L10.34,5.01z M10.21,5.61
				c0-0.03,0.02-0.03,0.04-0.03s0.04,0.01,0.03,0.04c0,0.02-0.02,0.03-0.07,0.03C10.21,5.64,10.2,5.63,10.21,5.61z M10.23,4.59
				c0.01,0,0.02,0.02,0.02,0.02c0,0.02-0.02,0.04-0.04,0.04c-0.02,0-0.02-0.02-0.02-0.03C10.19,4.59,10.2,4.58,10.23,4.59z
				 M10.28,5.76c0.03-0.01,0.05,0.03,0.05,0.04c-0.02,0.04-0.07,0.06-0.11,0.09C10.2,5.91,10.2,5.88,10.2,5.87
				C10.2,5.82,10.22,5.77,10.28,5.76L10.28,5.76z M10.17,6.5c0.01-0.03,0.04-0.05,0.05-0.08c0.02,0.02,0.05,0.03,0.04,0.06
				c-0.02,0.04-0.04,0.05-0.06,0.09C10.17,6.56,10.16,6.53,10.17,6.5C10.17,6.5,10.17,6.5,10.17,6.5z M10.2,6.63
				c-0.01,0.03-0.02,0.05-0.03,0.04c-0.04-0.02-0.08-0.04-0.09-0.09c0-0.03,0.01-0.04,0.04-0.03C10.16,6.56,10.18,6.6,10.2,6.63z
				 M10.08,4.37c0.04,0.01,0.04,0.04,0.04,0.07c0.01,0.04-0.03,0.03-0.04,0.05c-0.03-0.02-0.04-0.04-0.04-0.08
				C10.03,4.39,10.04,4.37,10.08,4.37L10.08,4.37z M9.98,5.39c0.01-0.03,0.03-0.06,0.05-0.05c0.04,0.01,0.06,0.05,0.04,0.1
				c-0.01,0.03-0.03,0.05-0.06,0.06C9.99,5.47,9.96,5.43,9.98,5.39L9.98,5.39z M9.82,3.96c0.04,0.01,0.06,0.03,0.07,0.07
				c0,0.03-0.02,0.04-0.04,0.04C9.83,4.05,9.79,4.02,9.77,3.99C9.77,3.98,9.78,3.95,9.82,3.96L9.82,3.96z M9.77,4.71
				c0.03,0,0.04,0.02,0.04,0.05C9.8,4.79,9.79,4.82,9.77,4.81c-0.03,0-0.04-0.03-0.04-0.05C9.72,4.73,9.74,4.71,9.77,4.71z
				 M9.8,4.97c0,0.01-0.02,0.02-0.03,0.04C9.76,4.99,9.75,4.98,9.75,4.97C9.74,4.95,9.76,4.94,9.77,4.94
				C9.78,4.94,9.8,4.95,9.8,4.97z M9.72,5.32C9.73,5.3,9.7,5.26,9.75,5.26c0.03,0,0.04,0.03,0.04,0.05c0,0.03-0.01,0.06-0.04,0.06
				C9.72,5.38,9.71,5.34,9.72,5.32z M9.8,5.57C9.76,5.59,9.73,5.67,9.68,5.6C9.66,5.57,9.61,5.54,9.65,5.51
				C9.72,5.46,9.75,5.56,9.8,5.57L9.8,5.57z M9.51,4.12c0.19,0.2,0.19,0.2,0.04,0.31C9.57,4.32,9.35,4.25,9.51,4.12z M9.48,6.23
				C9.47,6.28,9.52,6.28,9.49,6.32c-0.01,0.01-0.03,0-0.04,0C9.42,6.28,9.44,6.27,9.48,6.23z M9.4,5.01c0.02,0,0.04,0.02,0.04,0.04
				c0,0.03-0.01,0.04-0.04,0.04c-0.02,0-0.03-0.03-0.03-0.06C9.38,5.03,9.37,5.01,9.4,5.01z M9.26,2.26c0.02-0.02,0.05,0,0.06,0.02
				C9.35,2.32,9.3,2.33,9.28,2.36C9.24,2.32,9.23,2.3,9.26,2.26L9.26,2.26z M9.16,5.87c0.01,0.01-0.01,0.03-0.02,0.03
				c-0.03,0-0.04-0.01-0.04-0.04c0-0.01,0-0.03,0.02-0.02C9.13,5.85,9.16,5.86,9.16,5.87L9.16,5.87z M9.11,5.52
				C9.09,5.57,9.13,5.64,9.07,5.69C9.06,5.7,9.05,5.7,9.04,5.71C9.01,5.69,8.98,5.66,8.99,5.63C9,5.57,9.04,5.53,9.08,5.49
				C9.08,5.49,9.11,5.51,9.11,5.52L9.11,5.52z M9.07,5.07c0,0.04-0.03,0.05-0.05,0.07c-0.03,0-0.04-0.02-0.04-0.04
				c0-0.04,0.04-0.04,0.06-0.05C9.06,5.02,9.07,5.05,9.07,5.07z M8.98,1.58C9,1.58,9.01,1.58,9.01,1.6c0,0.02-0.02,0.04-0.04,0.03
				c-0.01,0-0.02-0.02-0.03-0.03C8.95,1.58,8.97,1.58,8.98,1.58z M8.95,3.24c0.02,0,0.04,0.02,0.04,0.04
				C8.98,3.29,8.97,3.31,8.94,3.31S8.91,3.28,8.9,3.26C8.91,3.25,8.93,3.23,8.95,3.24L8.95,3.24z M8.92,3.14
				c0,0.03-0.03,0.04-0.04,0.04c-0.03,0-0.04-0.02-0.04-0.04c0-0.03,0.03-0.02,0.04-0.02C8.9,3.12,8.92,3.11,8.92,3.14z M8.84,1.82
				C8.88,1.83,8.9,1.87,8.9,1.9c0.01,0.03-0.02,0.04-0.04,0.05C8.82,1.94,8.81,1.9,8.81,1.87C8.79,1.83,8.81,1.82,8.84,1.82z
				 M8.77,4.09c0.06-0.01,0.08,0.05,0.09,0.09c0.02,0.04-0.04,0.07-0.07,0.1C8.74,4.24,8.71,4.2,8.69,4.15
				C8.68,4.11,8.74,4.09,8.77,4.09L8.77,4.09z M8.68,1.45c0.03,0,0.04,0.02,0.04,0.04c0,0.02-0.02,0.04-0.04,0.04
				S8.64,1.5,8.64,1.48C8.64,1.45,8.66,1.45,8.68,1.45z M8.7,4.63c-0.03,0.04-0.02,0.1-0.08,0.09c-0.02,0-0.04-0.04-0.03-0.06
				C8.6,4.61,8.64,4.62,8.7,4.63L8.7,4.63z M8.53,1.49c0-0.01,0.03-0.01,0.04-0.01c0.03,0,0.02,0.03,0.02,0.04
				c0,0.07-0.04,0.13-0.07,0.2C8.5,1.72,8.49,1.73,8.47,1.72c-0.03-0.03-0.03-0.05-0.03-0.1C8.45,1.57,8.5,1.53,8.53,1.49L8.53,1.49
				z M8.41,1.83c0.01,0,0.02,0.01,0.03,0.02C8.45,1.87,8.43,1.88,8.4,1.9C8.39,1.9,8.39,1.89,8.38,1.88
				C8.38,1.85,8.39,1.83,8.41,1.83L8.41,1.83z M8.28,1.83c0.02,0,0.04-0.01,0.04,0.02c0,0.03-0.01,0.05-0.04,0.06
				c-0.02,0-0.04-0.02-0.04-0.04C8.24,1.84,8.25,1.82,8.28,1.83z M8.12,1.58c0.01,0,0.04,0.02,0.04,0.03c0,0.03-0.02,0.04-0.04,0.05
				c-0.02,0-0.04-0.02-0.03-0.04C8.1,1.6,8.11,1.58,8.12,1.58z M7.96,2.54c0.03,0.01,0.05,0.02,0.06,0.04C8.03,2.6,8.02,2.61,8,2.62
				C7.97,2.61,7.94,2.6,7.94,2.56C7.94,2.55,7.94,2.53,7.96,2.54z M7.79,2.46c0.03,0,0.03,0.03,0.04,0.04
				c0,0.02-0.02,0.04-0.03,0.04C7.78,2.53,7.77,2.52,7.77,2.49C7.77,2.48,7.77,2.46,7.79,2.46z M7.65,1.73
				c0.02-0.02,0.04,0,0.04,0.02C7.7,1.79,7.77,1.82,7.72,1.9C7.68,1.85,7.68,1.81,7.63,1.78C7.64,1.78,7.64,1.74,7.65,1.73
				L7.65,1.73z M7.59,1.45c0.02,0,0.03,0.01,0.04,0.04c0,0.02-0.02,0.03-0.04,0.03S7.55,1.5,7.55,1.48
				C7.56,1.46,7.57,1.45,7.59,1.45z M7.54,1.94c0.02-0.01,0.04,0.02,0.04,0.03c0,0.02-0.02,0.04-0.04,0.04
				C7.52,2.01,7.51,2,7.51,1.98S7.52,1.95,7.54,1.94z M7.46,1.5C7.49,1.49,7.5,1.51,7.5,1.54S7.47,1.58,7.46,1.59
				C7.42,1.58,7.42,1.57,7.42,1.53C7.41,1.5,7.44,1.5,7.46,1.5z M7.4,2.62c0.02,0,0.03,0,0.03,0.04c0,0-0.02,0.02-0.03,0.02
				c-0.02,0-0.03-0.02-0.03-0.04C7.36,2.62,7.38,2.62,7.4,2.62z M7.36,2.51c0,0.04-0.02,0.07-0.04,0.07S7.25,2.54,7.25,2.51
				s0.04-0.05,0.05-0.07C7.33,2.45,7.36,2.46,7.36,2.51L7.36,2.51z M7.27,1.4c0.02,0,0.04,0,0.04,0.04C7.31,1.44,7.3,1.46,7.29,1.47
				C7.26,1.48,7.25,1.45,7.25,1.43S7.25,1.39,7.27,1.4z M7.28,1.57C7.3,1.55,7.32,1.56,7.33,1.58c0.04,0.07-0.04,0.1-0.05,0.16
				C7.21,1.66,7.25,1.61,7.28,1.57L7.28,1.57z M7.24,2.93C7.23,2.96,7.2,2.98,7.17,3C7.13,2.99,7.1,2.96,7.1,2.93
				c0.01-0.03,0.04-0.05,0.08-0.05C7.21,2.89,7.24,2.91,7.24,2.93L7.24,2.93z M7.17,2.31c0,0.02-0.01,0.04-0.03,0.03
				c-0.02,0-0.04-0.02-0.03-0.03C7.13,2.3,7.15,2.29,7.16,2.29C7.18,2.28,7.17,2.3,7.17,2.31z M7.12,1.45h0.03
				c0.04,0.04,0.02,0.06-0.02,0.11C7.1,1.52,7.08,1.49,7.12,1.45z M7.1,2.68C7.09,2.7,7.08,2.72,7.04,2.71
				C7.02,2.7,6.99,2.69,7,2.67c0.01-0.03,0.02-0.04,0.05-0.04C7.08,2.64,7.11,2.65,7.1,2.68z M6.92,1.39c0.06,0,0.08,0.05,0.13,0.1
				c-0.07,0-0.11-0.03-0.15-0.06C6.9,1.42,6.91,1.39,6.92,1.39L6.92,1.39z M6.92,2.83c0.02,0,0.02,0.02,0.01,0.04
				C6.92,2.88,6.91,2.9,6.9,2.89C6.88,2.88,6.87,2.86,6.88,2.85C6.88,2.82,6.9,2.82,6.92,2.83z M6.89,2.4
				c0,0.04-0.03,0.05-0.04,0.09C6.82,2.46,6.8,2.43,6.81,2.4C6.82,2.38,6.87,2.4,6.89,2.4z M6.79,1.5c0.02,0,0.03,0.02,0.03,0.04
				C6.81,1.58,6.78,1.58,6.74,1.58c-0.02,0-0.04,0-0.04-0.03C6.72,1.5,6.76,1.5,6.79,1.5L6.79,1.5z M6.72,3.73l0.03,0.01
				C6.75,3.77,6.75,3.8,6.71,3.81C6.71,3.79,6.69,3.76,6.72,3.73L6.72,3.73z M6.48,3.61c-0.03,0-0.03-0.03-0.04-0.04
				c0-0.03,0.01-0.03,0.03-0.03c0.03,0,0.04,0.01,0.04,0.04C6.5,3.6,6.49,3.61,6.48,3.61z M6.4,2.32c0.04,0.02,0.08,0.05,0.1,0.09
				c0.01,0.02-0.04,0.04-0.07,0.05C6.39,2.45,6.36,2.43,6.36,2.38C6.36,2.35,6.38,2.31,6.4,2.32z M6.33,2.51
				c0-0.02,0.02-0.03,0.03-0.02c0.02,0,0.02,0.02,0.02,0.03c0,0.02-0.01,0.04-0.03,0.03C6.33,2.54,6.33,2.54,6.33,2.51L6.33,2.51z
				 M1.44,9.16C1.42,9.15,1.4,9.15,1.4,9.12c0-0.02,0.03-0.04,0.04-0.03C1.46,9.1,1.48,9.11,1.48,9.14
				C1.48,9.16,1.46,9.16,1.44,9.16z M4.48,7.49c0.01-0.04,0.06-0.04,0.1-0.06c0.03-0.01,0.05,0.02,0.04,0.05
				c-0.01,0.05-0.06,0.04-0.1,0.06C4.49,7.54,4.47,7.52,4.48,7.49z M4.51,9.38c0.03,0,0.04,0.02,0.04,0.04
				c0,0.04-0.04,0.04-0.05,0.06C4.47,9.46,4.47,9.44,4.46,9.41C4.46,9.37,4.48,9.38,4.51,9.38z M4.4,8.87c-0.03,0-0.05,0-0.05-0.04
				c0-0.03,0.02-0.04,0.04-0.04s0.04,0.02,0.04,0.04C4.45,8.87,4.42,8.86,4.4,8.87z M4.39,10.96c-0.02,0-0.02-0.02-0.02-0.03
				c0-0.02,0-0.03,0.02-0.03c0.02,0,0.02,0.01,0.02,0.03C4.41,10.94,4.41,10.96,4.39,10.96z M4.33,7.67c-0.02,0-0.03-0.02-0.02-0.04
				c0-0.02,0.02-0.03,0.04-0.02c0.02,0,0.03,0.01,0.02,0.04C4.36,7.66,4.34,7.67,4.33,7.67z M4.38,3.52c0.02,0,0.04-0.01,0.04,0.03
				c0,0.03-0.02,0.04-0.04,0.05C4.37,3.59,4.35,3.58,4.35,3.56C4.35,3.53,4.37,3.52,4.38,3.52z M4.34,4.64
				c0.02,0,0.04,0.01,0.03,0.04c-0.02,0.04-0.05,0.04-0.1,0.04C4.29,4.68,4.29,4.62,4.34,4.64z M4.05,6.81
				c0.01-0.02,0.02-0.03,0.04-0.04C4.1,6.79,4.12,6.8,4.12,6.82c0,0.01-0.02,0.03-0.03,0.04C4.06,6.84,4.04,6.83,4.05,6.81z
				 M4.05,9.37c0.02-0.01,0.03,0,0.04,0.01c0.01,0.04,0.08,0.04,0.05,0.1C4.13,9.5,4.12,9.55,4.09,9.54
				C4.03,9.52,4.06,9.45,4.03,9.42C4.03,9.39,4.03,9.38,4.05,9.37L4.05,9.37z M3.95,8.67c0.02,0,0.04,0,0.04,0.03
				c0,0.02,0,0.04-0.04,0.04C3.94,8.73,3.93,8.72,3.93,8.7C3.93,8.68,3.94,8.67,3.95,8.67L3.95,8.67z M3.77,6.14
				c0.01-0.01,0.02,0,0.02,0.01c0,0.02,0,0.04-0.02,0.04S3.75,6.19,3.74,6.16C3.74,6.15,3.77,6.15,3.77,6.14z M3.81,8.38
				C3.76,8.4,3.73,8.44,3.68,8.42c-0.02-0.01-0.01-0.03,0-0.04C3.71,8.35,3.75,8.35,3.81,8.38z M3.57,7.58
				C3.59,7.59,3.61,7.61,3.6,7.64c0,0.02-0.02,0.03-0.04,0.04C3.56,7.65,3.53,7.64,3.54,7.62C3.54,7.6,3.55,7.57,3.57,7.58z
				 M3.51,7.38c0-0.04,0.04-0.04,0.06-0.05C3.6,7.32,3.61,7.35,3.61,7.38c0,0.04-0.05,0.02-0.05,0.04C3.53,7.41,3.51,7.4,3.51,7.38
				L3.51,7.38z M3.61,9.01c0.02,0,0.04,0.01,0.03,0.03c0,0.03-0.01,0.04-0.04,0.04c-0.02,0-0.03-0.02-0.03-0.04
				C3.58,9.02,3.59,9.01,3.61,9.01z M3.59,9.97C3.6,9.95,3.63,9.94,3.65,9.96c0.04,0.04,0,0.08-0.01,0.12
				C3.59,10.06,3.56,10.03,3.59,9.97z M3.6,8.16C3.59,8.13,3.6,8.12,3.63,8.12c0.04,0,0.06,0.03,0.07,0.06
				C3.71,8.2,3.68,8.22,3.67,8.23C3.63,8.22,3.61,8.19,3.6,8.16z M3.68,7.13c0.04,0,0.03,0.04,0.03,0.05c0,0.02-0.01,0.04-0.04,0.04
				c-0.03,0-0.04-0.04-0.05-0.05C3.64,7.14,3.65,7.13,3.68,7.13z M3.6,3.55c0.02,0,0.02,0.02,0.02,0.03c0,0.01-0.02,0.02-0.03,0.04
				C3.58,3.59,3.57,3.58,3.57,3.57L3.6,3.55z M3.54,6.99C3.58,7,3.63,7,3.64,7.05C3.65,7.09,3.6,7.11,3.57,7.12
				C3.53,7.13,3.51,7.08,3.49,7.05C3.51,7.02,3.51,6.98,3.54,6.99z M3.45,7.74C3.49,7.75,3.51,7.78,3.51,7.8
				c0.01,0.03-0.01,0.04-0.03,0.05C3.46,7.84,3.44,7.81,3.43,7.78C3.42,7.76,3.42,7.74,3.45,7.74L3.45,7.74z M3.49,8.38
				C3.48,8.4,3.47,8.42,3.45,8.42C3.43,8.41,3.42,8.39,3.43,8.38c0.01-0.02,0.02-0.04,0.03-0.04C3.48,8.35,3.5,8.36,3.49,8.38
				L3.49,8.38z M2.95,7.8C2.92,7.8,2.9,7.74,2.9,7.72c0.02-0.06,0.08-0.09,0.13-0.1c0.02-0.01,0.05,0.04,0.08,0.05
				C3.06,7.72,3.01,7.78,2.95,7.8L2.95,7.8z M2.99,9.79c0,0.02-0.02,0.04-0.03,0.04C2.95,9.82,2.93,9.8,2.94,9.78
				c0-0.01,0-0.03,0.02-0.03C2.99,9.76,2.99,9.78,2.99,9.79L2.99,9.79z M2.9,9.71c-0.03,0-0.03-0.03-0.04-0.04
				C2.86,9.65,2.87,9.63,2.9,9.63s0.02,0.03,0.02,0.04C2.91,9.69,2.92,9.71,2.9,9.71z M2.72,7.94C2.66,7.96,2.6,7.97,2.58,8.04
				C2.57,8.08,2.56,8.1,2.53,8.07c-0.04-0.04-0.13-0.04-0.1-0.13c0.02-0.04,0.05-0.02,0.09,0C2.58,7.97,2.6,7.93,2.6,7.89
				c0-0.08,0.04-0.12,0.12-0.12c0.01,0,0.02-0.01,0.03-0.02C2.85,7.7,2.86,7.7,2.88,7.81c0.01,0.04,0.02,0.1-0.06,0.08
				C2.76,7.88,2.75,7.93,2.72,7.94L2.72,7.94z M2.73,8.63c0,0.02-0.01,0.04-0.03,0.04c-0.01,0-0.02-0.02-0.03-0.02
				c0-0.02,0-0.04,0.02-0.04S2.73,8.61,2.73,8.63L2.73,8.63z M2.48,9.34V9.29c0-0.04-0.08-0.05-0.04-0.09
				C2.5,9.16,2.5,9.25,2.54,9.27C2.57,9.29,2.6,9.32,2.63,9.36c0.04,0.04,0.04,0.08,0.01,0.12C2.6,9.53,2.56,9.51,2.53,9.47
				C2.49,9.42,2.48,9.39,2.48,9.34L2.48,9.34z M2.52,10.29l-0.01,0.02c-0.02,0-0.03-0.01-0.03-0.03c0-0.01,0.01-0.02,0.02-0.01
				C2.5,10.28,2.51,10.29,2.52,10.29z M2.44,9.33c0.01,0.05-0.01,0.08-0.02,0.08C2.38,9.39,2.36,9.37,2.35,9.33
				C2.34,9.31,2.37,9.29,2.38,9.3C2.41,9.3,2.44,9.32,2.44,9.33z M2.42,8.73C2.41,8.69,2.44,8.69,2.46,8.7
				c0.03,0,0.05,0.01,0.07,0.04C2.52,8.76,2.5,8.78,2.47,8.78C2.45,8.78,2.43,8.75,2.42,8.73L2.42,8.73z M2.64,8.24
				C2.63,8.23,2.6,8.23,2.61,8.2c0-0.02,0.02-0.02,0.04-0.01C2.65,8.2,2.67,8.21,2.67,8.22C2.67,8.23,2.65,8.24,2.64,8.24z
				 M2.48,7.51C2.47,7.53,2.46,7.55,2.43,7.55c-0.02,0-0.04-0.01-0.03-0.03C2.41,7.5,2.44,7.48,2.47,7.48
				C2.48,7.48,2.48,7.5,2.48,7.51L2.48,7.51z M2.48,7.35c0-0.01,0-0.03,0.02-0.03s0.03,0.01,0.04,0.03
				c0.01,0.02-0.01,0.03-0.03,0.04C2.49,7.39,2.48,7.37,2.48,7.35L2.48,7.35z M2.59,7.06C2.63,7.1,2.6,7.14,2.6,7.16
				C2.6,7.14,2.6,7.1,2.59,7.06z M2.74,7.63c0-0.03,0.02-0.04,0.04-0.04c0.03,0,0.04,0.03,0.04,0.04C2.81,7.64,2.8,7.66,2.78,7.68
				C2.76,7.66,2.74,7.64,2.74,7.63z M2.85,8.09c0.02-0.01,0.04-0.01,0.04,0C2.87,8.12,2.8,8.17,2.9,8.19
				C2.89,8.24,2.83,8.26,2.79,8.3C2.78,8.22,2.77,8.14,2.85,8.09L2.85,8.09z M2.85,8.66c0.02,0,0.04,0.02,0.03,0.04
				c0,0.02-0.02,0.04-0.04,0.03S2.82,8.69,2.81,8.68C2.82,8.65,2.84,8.65,2.85,8.66L2.85,8.66z M3.03,7.05
				c0.01-0.02,0.03-0.04,0.05-0.03c0.05,0.03,0.1,0.06,0.11,0.12C3.2,7.16,3.18,7.18,3.16,7.2C3.14,7.2,3.03,7.08,3.03,7.05z
				 M3.1,9.52c0.03,0,0.03,0.02,0.03,0.04c0,0.03-0.02,0.03-0.04,0.03S3.07,9.56,3.07,9.55S3.08,9.52,3.1,9.52z M3.16,9.85
				c0.06-0.02,0.08,0.04,0.11,0.09C3.2,9.95,3.15,9.93,3.11,9.89C3.08,9.87,3.14,9.86,3.16,9.85z M3.26,10.77
				c0.01,0,0.02,0.01,0.02,0.02c0.01,0.01,0,0.03-0.01,0.04c-0.01,0-0.02-0.01-0.03-0.02C3.23,10.79,3.24,10.78,3.26,10.77z
				 M3.32,11.21c0.01,0.08,0,0.13,0.04,0.19c0.02,0.02,0.04,0.06,0.02,0.1c-0.02,0.03-0.03,0.07-0.06,0.06
				c-0.03-0.01-0.03-0.04-0.04-0.07c0-0.04-0.01-0.06-0.04-0.11C3.17,11.31,3.25,11.26,3.32,11.21L3.32,11.21z M3.33,10.54
				c0-0.03,0.03-0.02,0.04-0.02c0.02,0,0.03,0.01,0.02,0.03c-0.01,0.01-0.02,0.04-0.04,0.04C3.32,10.58,3.32,10.56,3.33,10.54z
				 M3.34,9.67C3.31,9.65,3.29,9.63,3.3,9.61c0-0.03,0.01-0.05,0.04-0.05c0.03,0,0.05,0.02,0.04,0.05C3.38,9.64,3.36,9.65,3.34,9.67
				z M3.32,9.46c-0.04,0-0.06-0.02-0.05-0.04c0.01-0.03,0.03-0.06,0.06-0.06c0.03,0,0.04,0.04,0.06,0.06
				C3.37,9.45,3.35,9.46,3.32,9.46L3.32,9.46z M3.26,9.3V9.15c0,0,0.01,0,0.01-0.01L3.26,9.3C3.27,9.3,3.26,9.3,3.26,9.3z
				 M3.31,7.37C3.33,7.38,3.36,7.4,3.35,7.43c0,0.02-0.02,0.04-0.04,0.04C3.28,7.46,3.27,7.44,3.27,7.4
				C3.28,7.39,3.3,7.36,3.31,7.37z M3.3,7.2c0-0.01,0.02-0.02,0.02-0.02c0.04,0.01,0.03,0.04,0.04,0.06C3.34,7.23,3.29,7.24,3.3,7.2
				L3.3,7.2z M3.36,6.84C3.35,6.88,3.34,6.9,3.31,6.9c-0.02,0-0.04-0.01-0.03-0.04C3.3,6.84,3.3,6.8,3.34,6.79
				C3.35,6.79,3.37,6.82,3.36,6.84z M3.29,5.56c0.02,0,0.03,0.01,0.03,0.03C3.31,5.6,3.3,5.61,3.29,5.62
				C3.28,5.6,3.26,5.59,3.26,5.58C3.25,5.56,3.27,5.56,3.29,5.56z M3.25,9.77C3.27,9.78,3.3,9.78,3.3,9.8
				c0,0.02-0.02,0.03-0.04,0.04C3.24,9.83,3.21,9.83,3.22,9.8C3.22,9.78,3.23,9.75,3.25,9.77z M3.2,6.21c0.02,0,0.04,0.01,0.03,0.03
				C3.22,6.26,3.22,6.28,3.19,6.28c-0.02,0-0.03-0.02-0.03-0.04S3.17,6.21,3.2,6.21z M3.19,6.6c0.02,0,0.03,0.01,0.03,0.03
				C3.19,6.7,3.2,6.79,3.15,6.85C3.13,6.87,3.12,6.9,3.09,6.89C3.06,6.88,3.08,6.84,3.08,6.84c-0.01-0.1,0.06-0.15,0.08-0.22
				C3.16,6.6,3.17,6.6,3.19,6.6L3.19,6.6z M3.03,5.34C3.05,5.32,3.07,5.28,3.1,5.28c0.03,0,0.03,0.02,0.03,0.04
				C3.12,5.35,3.09,5.37,3.07,5.39C3.04,5.38,3.02,5.36,3.03,5.34L3.03,5.34z M3,7.23c0.03,0.11-0.09,0.09-0.12,0.15
				c-0.08-0.1,0-0.12,0.05-0.17C2.99,7.18,2.99,7.21,3,7.23z M2.83,5.18c0.02-0.03,0-0.08,0.06-0.07c0.03,0,0.03,0.03,0.02,0.04
				C2.9,5.17,2.9,5.21,2.86,5.23C2.84,5.22,2.82,5.2,2.83,5.18L2.83,5.18z M2.8,6.92c0.01-0.03,0.03-0.03,0.05-0.03
				c0.02,0,0.03,0.01,0.02,0.03C2.86,6.93,2.85,6.95,2.82,6.95C2.82,6.95,2.8,6.94,2.8,6.92z M2.8,5.6
				C2.78,5.59,2.77,5.58,2.77,5.56c0-0.02,0.01-0.03,0.03-0.03c0.02,0,0.03,0.02,0.03,0.04S2.81,5.6,2.8,5.6z M2.73,5.37
				C2.74,5.35,2.77,5.33,2.8,5.36c0.05,0.04,0,0.07-0.01,0.11C2.77,5.43,2.71,5.42,2.73,5.37z M2.71,7.18
				C2.75,7.13,2.8,7.08,2.86,7.03c0.03-0.02,0.06,0.01,0.09,0.04C2.88,7.13,2.81,7.19,2.74,7.24C2.73,7.26,2.7,7.2,2.71,7.18
				L2.71,7.18z M2.73,7.4c0.02-0.02,0.04-0.02,0.05,0c0.04,0.05-0.01,0.08-0.04,0.12C2.7,7.47,2.68,7.43,2.73,7.4z M2.68,7.26
				C2.67,7.28,2.66,7.3,2.64,7.3C2.62,7.29,2.6,7.28,2.61,7.26c0.01-0.02,0.03-0.03,0.05-0.03C2.67,7.24,2.68,7.24,2.68,7.26z
				 M2.62,6.72c0,0.03-0.02,0.04-0.04,0.05L2.39,6.93C2.38,6.94,2.37,6.98,2.33,6.95C2.31,6.94,2.3,6.91,2.32,6.89c0,0,0,0,0-0.01
				c0.06-0.08,0.13-0.16,0.22-0.2C2.6,6.64,2.59,6.7,2.62,6.72L2.62,6.72z M2.38,7.34c0.02,0,0.03,0.01,0.03,0.03
				c0,0.01-0.02,0.02-0.03,0.04C2.37,7.4,2.37,7.39,2.36,7.38C2.36,7.35,2.36,7.34,2.38,7.34z M2.34,7.28
				c0-0.04,0.01-0.05,0.03-0.05c0.01,0,0.04,0,0.03,0.02c0,0.02-0.01,0.04-0.04,0.04C2.35,7.29,2.34,7.28,2.34,7.28L2.34,7.28z
				 M2.51,6.44c0,0.03-0.01,0.04-0.04,0.05C2.46,6.48,2.43,6.48,2.43,6.45c0.01-0.03,0.01-0.06,0.04-0.06
				C2.49,6.38,2.51,6.41,2.51,6.44L2.51,6.44z M2.46,6.17C2.43,6.15,2.4,6.13,2.41,6.11c0-0.01,0.03-0.03,0.04-0.03
				c0.03,0,0.04,0.02,0.04,0.04C2.48,6.14,2.47,6.16,2.46,6.17L2.46,6.17z M2.45,5.86C2.44,5.83,2.38,5.8,2.42,5.77
				c0.01-0.02,0.04-0.03,0.05-0.02C2.51,5.8,2.47,5.82,2.45,5.86L2.45,5.86z M2.47,5.66c0,0.02-0.01,0.03-0.03,0.03
				C2.41,5.68,2.4,5.66,2.4,5.64C2.39,5.63,2.42,5.63,2.43,5.63C2.46,5.62,2.47,5.64,2.47,5.66L2.47,5.66z M2.46,5.01
				c-0.04,0.02-0.09,0.02-0.15,0C2.37,5.01,2.41,5.01,2.46,5.01z M2.23,6.26c0,0.04-0.02,0.04-0.04,0.06
				C2.16,6.31,2.15,6.29,2.15,6.27c0-0.04,0.02-0.04,0.05-0.05C2.23,6.21,2.23,6.24,2.23,6.26L2.23,6.26z M2.15,5.65
				c0.04,0,0.04,0.04,0.04,0.06c0,0.04,0,0.07-0.04,0.07S2.13,5.74,2.12,5.72C2.13,5.69,2.11,5.65,2.15,5.65z M2.12,6.11
				c0.02,0.02,0.04,0.03,0.04,0.05C2.14,6.18,2.14,6.2,2.12,6.19C2.1,6.18,2.08,6.17,2.09,6.15C2.09,6.13,2.11,6.12,2.12,6.11z
				 M2.09,6.63H2.06C2.01,6.6,2.04,6.55,2.05,6.51C2.12,6.54,2.11,6.59,2.09,6.63L2.09,6.63z M2.05,5.49c0.02,0,0.04,0.01,0.03,0.03
				c0,0.03-0.02,0.04-0.03,0.05C2.04,5.56,2.03,5.55,2.03,5.53C2.02,5.52,2.02,5.49,2.05,5.49z M2.08,7.93
				C2.15,7.92,2.2,7.96,2.23,8.02c0.01,0.01,0,0.04-0.01,0.04c-0.02,0.02-0.03,0-0.04-0.01C2.12,8.03,2.04,8.03,2.08,7.93
				c-0.02,0-0.04,0.01-0.05,0.01C2,7.94,2.03,8.02,1.98,7.97c-0.04-0.03,0-0.06,0.01-0.1C2.02,7.91,2.08,7.87,2.08,7.93L2.08,7.93z
				 M2.12,8.94c0,0.05-0.04,0.05-0.07,0.06C2.03,9.01,2.01,8.99,2.02,8.96c0.01-0.03,0.04-0.07,0.06-0.08
				C2.11,8.88,2.12,8.91,2.12,8.94L2.12,8.94z M1.73,7.59C1.7,7.6,1.67,7.61,1.65,7.58C1.64,7.56,1.64,7.52,1.67,7.5
				c0.04-0.04,0.08-0.08,0.05-0.15C1.69,7.37,1.64,7.4,1.59,7.39c-0.05,0-0.06-0.04-0.04-0.06c0.08-0.04,0.08-0.17,0.21-0.18
				c0.04,0,0-0.07,0-0.11c0.05,0.02,0.11,0.04,0.06,0.11c-0.02,0.03,0,0.08,0.04,0.09C1.99,7.27,1.9,7.32,1.87,7.38
				C1.86,7.39,1.85,7.39,1.85,7.41C1.9,7.38,1.93,7.47,1.99,7.44C1.93,7.53,1.83,7.56,1.73,7.59L1.73,7.59z M1.77,6.75
				C1.76,6.79,1.88,6.78,1.81,6.85C1.79,6.87,1.77,6.92,1.74,6.88C1.69,6.83,1.75,6.79,1.77,6.75L1.77,6.75z M1.74,6.63
				c0-0.03,0.01-0.04,0.04-0.04c0.02,0,0.04,0.01,0.03,0.03c0,0.03-0.02,0.04-0.04,0.04C1.76,6.68,1.74,6.66,1.74,6.63z M1.95,6.96
				c-0.02,0.03-0.03,0-0.04-0.01c-0.05-0.05,0-0.08,0.02-0.12C1.98,6.87,1.99,6.92,1.95,6.96L1.95,6.96z M1.86,6.45
				C1.85,6.4,1.79,6.36,1.84,6.31c0.01-0.01,0.03-0.02,0.04,0C1.92,6.36,1.92,6.4,1.86,6.45z M1.87,6.02c0,0.02-0.01,0.04-0.04,0.04
				c-0.02,0-0.03-0.02-0.04-0.04c0-0.03,0.01-0.03,0.03-0.04C1.86,5.98,1.87,5.99,1.87,6.02z M1.85,5.86
				C1.84,5.87,1.83,5.88,1.82,5.89c-0.03,0-0.03-0.02-0.03-0.03c0-0.02,0.01-0.04,0.03-0.04C1.83,5.83,1.86,5.84,1.85,5.86z
				 M1.8,4.61c0.02,0,0.03,0.02,0.03,0.04S1.82,4.68,1.79,4.69C1.78,4.68,1.77,4.66,1.77,4.65C1.76,4.62,1.78,4.61,1.8,4.61z
				 M1.78,6.17C1.82,6.16,1.85,6.2,1.84,6.21C1.83,6.23,1.79,6.25,1.76,6.25c-0.03,0-0.04-0.03-0.04-0.04
				C1.72,6.16,1.76,6.18,1.78,6.17L1.78,6.17z M1.65,5.5c0.01-0.03,0.04-0.04,0.07-0.02c0.05,0.04,0.02,0.09-0.01,0.14
				C1.67,5.58,1.62,5.56,1.65,5.5L1.65,5.5z M1.68,5.98c0,0.05,0.01,0.11-0.02,0.15C1.63,6.08,1.61,6.04,1.68,5.98z M1.63,6.98
				c0.02,0,0.03,0.01,0.03,0.03c0,0.03-0.02,0.04-0.04,0.05C1.6,7.05,1.59,7.04,1.59,7.02C1.59,7,1.6,6.98,1.63,6.98z M1.56,6.61
				v0.14C1.54,6.69,1.55,6.66,1.56,6.61z M1.51,5.36c0.02,0,0.04,0.01,0.04,0.04c0,0.03-0.02,0.04-0.04,0.04
				C1.49,5.45,1.49,5.41,1.47,5.41C1.46,5.36,1.49,5.36,1.51,5.36z M1.32,6.6c0.03,0.04,0.01,0.07,0,0.1V6.6z M1.18,7.47
				c-0.02,0-0.03-0.01-0.03-0.03c0-0.01,0.01-0.03,0.02-0.04C1.19,7.4,1.19,7.41,1.2,7.43C1.21,7.45,1.2,7.46,1.18,7.47z M1.24,7.25
				C1.22,7.24,1.2,7.24,1.2,7.21c0-0.02,0-0.04,0.03-0.04c0.02,0,0.04,0.02,0.04,0.04C1.27,7.24,1.26,7.24,1.24,7.25z M1.34,7.5
				C1.33,7.48,1.34,7.46,1.34,7.42C1.37,7.46,1.38,7.48,1.34,7.5z M1.46,8.34C1.45,8.32,1.43,8.3,1.42,8.28
				C1.41,8.27,1.43,8.26,1.44,8.26c0.03,0,0.04,0.02,0.04,0.04C1.5,8.3,1.49,8.32,1.46,8.34z M1.34,7.32
				C1.34,7.32,1.32,7.34,1.3,7.33c-0.02-0.02-0.02-0.04,0-0.05C1.33,7.26,1.36,7.25,1.35,7.2C1.33,7.08,1.41,7.08,1.5,7.09
				C1.49,7.2,1.41,7.25,1.34,7.32z M1.49,5.72C1.45,5.72,1.44,5.68,1.44,5.64c0-0.03,0.01-0.05,0.04-0.04
				c0.02,0.02,0.07,0,0.06,0.05C1.53,5.69,1.51,5.72,1.49,5.72z M1.56,7.15c0.03,0,0.05,0.02,0.04,0.04c-0.01,0.02,0,0.06-0.04,0.06
				C1.53,7.24,1.52,7.23,1.52,7.2C1.53,7.19,1.51,7.15,1.56,7.15L1.56,7.15z M1.56,7.56C1.54,7.56,1.53,7.55,1.53,7.54
				c0-0.02,0.01-0.03,0.02-0.03c0.01,0,0.02,0.01,0.03,0.01C1.59,7.54,1.58,7.56,1.56,7.56z M1.59,9.24c0-0.04,0.04-0.05,0.05-0.07
				C1.67,9.2,1.71,9.23,1.71,9.25C1.72,9.28,1.67,9.29,1.64,9.3C1.61,9.29,1.59,9.29,1.59,9.24z M1.64,9.73
				C1.62,9.71,1.6,9.69,1.63,9.67C1.7,9.62,1.71,9.71,1.76,9.72C1.72,9.77,1.69,9.79,1.64,9.73L1.64,9.73z M1.73,9.43
				C1.71,9.42,1.7,9.41,1.7,9.39c0-0.02,0.02-0.02,0.03-0.02c0.01,0,0.03,0,0.03,0.02C1.77,9.41,1.74,9.42,1.73,9.43z M1.81,7.6
				c0.02,0.04,0.01,0.08,0,0.12C1.81,7.67,1.79,7.64,1.81,7.6z M1.84,8.49c0,0.07,0.02,0.11-0.01,0.15
				C1.82,8.59,1.82,8.56,1.84,8.49z M1.87,9.98c0,0-0.02,0-0.02-0.01C1.84,9.95,1.85,9.92,1.88,9.9C1.89,9.94,1.9,9.96,1.87,9.98
				L1.87,9.98z M1.96,9.55c-0.03,0-0.03-0.02-0.04-0.04C1.92,9.45,1.95,9.41,1.97,9.37C1.96,9.34,1.94,9.35,1.92,9.34
				C1.89,9.32,1.89,9.31,1.91,9.28C1.94,9.25,1.95,9.29,1.95,9.3l0.05,0.05C2.05,9.39,2.01,9.55,1.96,9.55L1.96,9.55z M2.21,9.31
				C2.2,9.36,2.19,9.41,2.1,9.42c0.08-0.17-0.09-0.19-0.17-0.28h0.15c0-0.01,0.01-0.01,0.01-0.02c0.02-0.03,0.02-0.07,0.05-0.09
				c0.01,0,0.04,0.01,0.04,0.02C2.19,9.09,2.13,9.1,2.12,9.14C2.15,9.2,2.23,9.23,2.21,9.31L2.21,9.31z M2.22,8.74
				c-0.03,0-0.04-0.01-0.04-0.03c-0.01-0.02,0-0.04,0.03-0.04c0.02,0,0.04,0.02,0.04,0.03C2.24,8.71,2.22,8.73,2.22,8.74L2.22,8.74z
				 M2.21,6.46c0-0.04,0.03-0.04,0.05-0.04c0.03,0,0.05,0.01,0.05,0.04c0,0.03-0.02,0.04-0.05,0.04C2.23,6.52,2.21,6.49,2.21,6.46z
				 M2.28,7.39V7.26C2.29,7.31,2.3,7.35,2.28,7.39z M2.59,8.67C2.46,8.66,2.38,8.6,2.27,8.51C2.42,8.5,2.5,8.57,2.59,8.67z
				 M2.32,10.82c-0.02-0.02-0.04-0.03-0.04-0.04l0.05-0.05c0.01,0.02,0.03,0.03,0.03,0.04C2.36,10.8,2.33,10.8,2.32,10.82
				L2.32,10.82z M2.37,10.41c0.01-0.02,0.02-0.04,0.04-0.04c0.03,0.01,0.03,0.03,0.03,0.04c0,0.02-0.01,0.04-0.04,0.04
				C2.38,10.44,2.36,10.43,2.37,10.41z M2.52,11.31c-0.04-0.05-0.08-0.09-0.03-0.13c0.01-0.01,0.02-0.04,0.04-0.01
				C2.58,11.22,2.54,11.26,2.52,11.31L2.52,11.31z M2.55,10.72c-0.05-0.01-0.16-0.03-0.15-0.08c0-0.05,0.11-0.07,0.17-0.1
				c0.02-0.01,0.09,0.02,0.07,0.1C2.63,10.67,2.59,10.74,2.55,10.72z M2.58,11.01c0-0.04,0.04-0.05,0.08-0.06
				c0.02-0.01,0.05-0.01,0.05,0.03c0.01,0.05-0.05,0.05-0.08,0.08C2.61,11.05,2.58,11.03,2.58,11.01z M2.73,11.22
				c-0.04,0.04-0.11-0.01-0.12-0.04c-0.04-0.07,0.06-0.07,0.08-0.12C2.72,11.13,2.81,11.16,2.73,11.22L2.73,11.22z M2.63,10.43
				c-0.02-0.02-0.05-0.04-0.02-0.06c0.06-0.06,0.1,0.02,0.16,0.04C2.73,10.45,2.69,10.51,2.63,10.43z M2.81,10.93
				c-0.03,0-0.04-0.02-0.04-0.04c0-0.01,0.02-0.03,0.04-0.04c0.03-0.01,0.03,0.02,0.03,0.04S2.83,10.93,2.81,10.93z M2.82,10.61
				c-0.01-0.02-0.03-0.03-0.03-0.04c-0.01-0.04,0.03-0.03,0.04-0.04c0.01-0.01,0.04,0.02,0.04,0.04C2.87,10.58,2.84,10.6,2.82,10.61
				L2.82,10.61z M2.91,10.71c0.04-0.01,0.04,0.04,0.05,0.07c-0.01,0.03-0.03,0.05-0.05,0.05c-0.03,0-0.04-0.02-0.04-0.04
				C2.88,10.75,2.89,10.72,2.91,10.71z M2.93,11.6c-0.03-0.01-0.05-0.04-0.05-0.05c0.03-0.04,0.07-0.06,0.11-0.08
				C3,11.46,3.02,11.48,3.02,11.5C3.02,11.55,2.97,11.56,2.93,11.6L2.93,11.6z M3.04,10.87C3,10.84,2.98,10.81,3.02,10.76
				c0.02-0.02,0.01-0.05,0.04-0.05c0.02,0.02,0.03,0.04,0.04,0.06c0.04,0.04,0.02,0.08-0.01,0.12C3.08,10.91,3.06,10.88,3.04,10.87
				L3.04,10.87z M3.07,10.54c0.02,0,0.04-0.01,0.04,0.03c0,0.04-0.03,0.05-0.05,0.07c-0.01-0.02-0.03-0.04-0.03-0.04
				C3.02,10.55,3.04,10.54,3.07,10.54L3.07,10.54z M3.13,11.04C3.1,11.05,3.09,11.02,3.08,11c0-0.02,0.02-0.04,0.03-0.04
				c0.02,0,0.04,0.02,0.04,0.04C3.15,11.02,3.14,11.04,3.13,11.04z M3.04,10.47c-0.04,0.02-0.06-0.03-0.05-0.06
				c0-0.05,0.04-0.09,0.08-0.1c0.04-0.01,0.07,0.04,0.09,0.08C3.14,10.46,3.08,10.46,3.04,10.47L3.04,10.47z M3.25,12.04
				c-0.04-0.01-0.05-0.03-0.05-0.05c0-0.03,0.02-0.05,0.04-0.04c0.02,0,0.05,0,0.05,0.03C3.3,12.02,3.26,12.02,3.25,12.04z
				 M3.51,11.83c-0.04,0.04-0.06,0.01-0.1-0.02c-0.04-0.02-0.08,0.05-0.1,0.01c-0.03-0.04,0.01-0.06,0.05-0.04
				c0.02,0.01,0.04,0.01,0.04,0.01c0-0.05,0.06-0.07,0.06-0.13C3.51,11.72,3.55,11.78,3.51,11.83z M3.54,11.61
				c-0.03,0-0.04-0.01-0.04-0.03c0-0.03,0.03-0.04,0.05-0.04c0.04,0,0.04,0.02,0.04,0.04C3.59,11.62,3.56,11.6,3.54,11.61z
				 M3.62,10.75c0.04,0,0.05,0.02,0.05,0.04c0,0.01-0.02,0.03-0.03,0.03c-0.03,0-0.04-0.03-0.05-0.05
				C3.6,10.76,3.6,10.75,3.62,10.75z M3.72,12.34c-0.05-0.04-0.11-0.06-0.12-0.12c-0.01-0.04,0.05-0.05,0.09-0.05
				c0.04,0.01,0.09,0.04,0.1,0.1C3.79,12.31,3.75,12.33,3.72,12.34L3.72,12.34z M3.74,9.2c-0.02,0-0.03,0-0.04-0.02
				C3.69,9.16,3.72,9.15,3.73,9.14l0.02,0.02C3.77,9.19,3.76,9.2,3.74,9.2z M3.77,10.07c0.03,0,0.04,0.02,0.03,0.04
				c0,0.02-0.01,0.03-0.03,0.02c-0.02-0.01-0.04-0.03-0.03-0.04C3.73,10.07,3.75,10.07,3.77,10.07z M3.77,11.73v-0.1h0.01
				L3.77,11.73L3.77,11.73z M3.77,10.71c-0.03,0-0.04-0.02-0.04-0.04c-0.01-0.01,0-0.03,0.02-0.03c0.03,0,0.04,0.01,0.05,0.03
				C3.81,10.69,3.79,10.7,3.77,10.71z M3.74,9.04C3.7,9.05,3.69,8.99,3.68,8.98C3.68,8.94,3.7,8.9,3.74,8.9
				c0.02,0,0.06,0.02,0.07,0.05C3.79,8.99,3.77,9.03,3.74,9.04L3.74,9.04z M3.86,9.73c-0.02,0-0.03-0.02-0.02-0.03
				c0.02-0.05,0.05-0.06,0.1-0.07c0.02,0,0.03,0.01,0.03,0.03C3.94,9.7,3.9,9.71,3.86,9.73z M3.97,12.26
				c0.01-0.02,0.01-0.04,0.04-0.03c0.03,0,0.04,0.03,0.04,0.04s-0.01,0.04-0.04,0.03C3.98,12.3,3.98,12.27,3.97,12.26z M4.06,12.42
				c-0.03,0.01-0.04-0.02-0.05-0.04C4,12.36,4.03,12.34,4.04,12.34c0.04-0.01,0.03,0.04,0.04,0.04C4.09,12.41,4.08,12.42,4.06,12.42
				L4.06,12.42z M4.12,10.74c0.12,0.04,0.02,0.11,0.02,0.17C4.03,10.84,4.13,10.79,4.12,10.74z M4.12,11.89
				c0.01-0.03,0.04-0.04,0.06-0.05c0.02,0,0.04,0.01,0.04,0.04c-0.01,0.03-0.03,0.05-0.05,0.05C4.15,11.93,4.12,11.92,4.12,11.89
				L4.12,11.89z M4.24,12.53c0,0.03-0.01,0.04-0.04,0.04c-0.03,0-0.03-0.03-0.03-0.04c0-0.03,0.01-0.04,0.04-0.04
				C4.24,12.49,4.24,12.51,4.24,12.53z M4.28,8.67c-0.06,0.02-0.1-0.01-0.13-0.05C4.13,8.59,4.15,8.58,4.16,8.58
				C4.22,8.57,4.25,8.61,4.28,8.67L4.28,8.67z M4.29,8.6c-0.01,0-0.03-0.02-0.03-0.03s0.02-0.03,0.03-0.02
				c0.01,0,0.02,0.02,0.03,0.03C4.32,8.6,4.3,8.61,4.29,8.6z M4.39,12.07c-0.15-0.06-0.01-0.15-0.02-0.23
				c0.08,0.04,0.1,0.12,0.16,0.17c0.04,0.04-0.01,0.07-0.04,0.1C4.43,12.16,4.42,12.1,4.39,12.07L4.39,12.07z M4.47,12.88
				c0.03-0.04,0.05-0.03,0.09-0.01C4.54,12.87,4.51,12.87,4.47,12.88z M4.63,10.83c-0.03-0.01-0.04-0.03-0.04-0.06
				c0-0.03,0.01-0.05,0.05-0.04c0.04,0.01,0.04,0.02,0.04,0.05C4.67,10.81,4.65,10.82,4.63,10.83z M4.59,9.3
				C4.55,9.26,4.54,9.22,4.52,9.16C4.51,9.14,4.54,9.12,4.56,9.12C4.62,9.13,4.64,9.16,4.68,9.2C4.65,9.23,4.64,9.28,4.59,9.3z
				 M4.68,8.01c-0.02-0.03-0.02-0.07,0-0.11C4.7,7.94,4.7,7.97,4.68,8.01z M6.37,8.84c0.02,0,0.04,0.01,0.04,0.03
				C6.39,8.88,6.38,8.9,6.36,8.91C6.33,8.91,6.33,8.89,6.33,8.88C6.32,8.86,6.34,8.85,6.37,8.84z M6.22,8.53
				c0.02,0.05,0.01,0.08,0,0.11C6.2,8.61,6.2,8.59,6.22,8.53z M6.16,8.88C6.17,8.9,6.17,8.93,6.14,8.96C6.1,9,6.04,9.03,5.99,9.06
				C5.94,9.03,5.91,8.98,5.9,8.93C5.89,8.89,5.95,8.91,5.98,8.9c0.04-0.01,0.08,0,0.12-0.01C6.12,8.87,6.15,8.85,6.16,8.88
				L6.16,8.88z M6.26,11.77c0.02-0.01,0.04,0,0.04,0.04c-0.02,0.05-0.06,0.09-0.11,0.12c-0.02,0.01-0.04-0.03-0.04-0.04
				C6.15,11.8,6.21,11.79,6.26,11.77z M5.95,9.58C5.96,9.56,5.98,9.55,6,9.55c0.03,0,0.03,0.03,0.04,0.04
				C6.03,9.61,6.02,9.63,5.99,9.63C5.97,9.63,5.95,9.61,5.95,9.58z M5.97,11.01c0,0.01-0.03,0.03-0.04,0.04
				c-0.04-0.03-0.07-0.04-0.08-0.07c-0.01-0.03,0.02-0.04,0.04-0.04C5.94,10.95,5.96,10.98,5.97,11.01L5.97,11.01z M5.97,9.23
				C5.97,9.2,6,9.18,6.03,9.18c0.04,0,0.05,0.03,0.05,0.06c0,0.03-0.01,0.05-0.04,0.05C6.02,9.29,5.97,9.28,5.97,9.23L5.97,9.23z
				 M5.97,8.15c0.01,0.06,0.01,0.1-0.01,0.13C5.95,8.24,5.94,8.2,5.97,8.15z M5.99,8.69C6,8.71,5.97,8.73,5.95,8.74
				C5.9,8.76,5.9,8.71,5.87,8.67C5.93,8.67,5.96,8.66,5.99,8.69L5.99,8.69z M5.88,9.3c0.02,0,0.04,0.03,0.05,0.04
				c0,0.04-0.02,0.04-0.04,0.04C5.87,9.39,5.85,9.37,5.85,9.34C5.84,9.32,5.86,9.3,5.88,9.3z M5.87,5.41c0,0.02-0.02,0.04-0.04,0.04
				C5.8,5.44,5.77,5.42,5.78,5.37c0,0,0-0.02,0.03-0.01S5.88,5.36,5.87,5.41L5.87,5.41z M6.12,6.2c-0.02,0-0.02-0.01-0.02-0.03
				c0-0.02,0.01-0.04,0.03-0.04s0.02,0.02,0.02,0.03C6.14,6.18,6.14,6.2,6.12,6.2z M6.15,1.33c0.01,0,0.03,0.01,0.04,0.02
				C6.2,1.39,6.18,1.41,6.13,1.42C6.13,1.38,6.1,1.34,6.15,1.33L6.15,1.33z M6.12,3.18c0.01,0,0.02,0.01,0.03,0.02
				c0,0.02,0,0.03-0.01,0.03c-0.03,0-0.04,0-0.04-0.02C6.09,3.19,6.11,3.18,6.12,3.18L6.12,3.18z M6.08,5.73
				c0,0.02-0.01,0.04-0.04,0.04C6.03,5.76,6.03,5.75,6.03,5.74c0.02-0.01,0.03-0.02,0.04-0.03C6.07,5.72,6.08,5.72,6.08,5.73
				L6.08,5.73z M5.99,1.77c0.02-0.01,0.02-0.06,0.05-0.03c0.03,0.03,0.02,0.05,0,0.07C6.02,1.84,6,1.87,5.96,1.9
				C5.94,1.84,5.94,1.8,5.99,1.77L5.99,1.77z M5.97,3.24C6,3.23,6,3.25,6,3.27c0,0.02,0,0.04-0.02,0.04S5.94,3.29,5.94,3.28
				C5.94,3.26,5.94,3.24,5.97,3.24L5.97,3.24z M5.91,2.6c0,0.02,0,0.04-0.02,0.04c-0.02,0-0.03-0.01-0.03-0.03
				c0-0.01,0.01-0.03,0.02-0.04C5.91,2.57,5.91,2.59,5.91,2.6z M5.86,3.01c0,0.01-0.01,0.02-0.02,0.02c-0.02,0-0.03-0.01-0.02-0.03
				c0-0.01,0.02-0.02,0.02-0.02C5.87,2.99,5.86,3.01,5.86,3.01z M5.86,2.11C5.91,2.1,5.9,2.15,5.89,2.17
				C5.87,2.23,5.85,2.3,5.82,2.36C5.77,2.3,5.8,2.13,5.86,2.11L5.86,2.11z M5.77,2.57c0.02,0,0.03,0.01,0.03,0.03
				c0,0.01-0.01,0.02-0.01,0.03L5.77,2.6C5.76,2.59,5.77,2.58,5.77,2.57z M5.77,2.03c0,0.02-0.01,0.04-0.04,0.03
				C5.72,2.05,5.7,2.04,5.7,2.02C5.71,2,5.72,1.98,5.75,1.98C5.77,1.99,5.77,2.01,5.77,2.03z M5.7,1.51
				c0.01-0.03,0.03-0.06,0.05-0.05c0.02,0,0.04,0.04,0.03,0.06c0,0.03-0.01,0.04-0.04,0.04C5.72,1.54,5.69,1.54,5.7,1.51L5.7,1.51z
				 M5.76,5.09c0.07-0.01,0.13,0.07,0.13,0.16c0,0.07-0.07,0.04-0.1,0.05C5.73,5.31,5.7,5.26,5.7,5.17
				C5.68,5.12,5.72,5.09,5.76,5.09z M5.62,2.7c0.02,0,0.02,0.03,0.02,0.04c0,0.03-0.02,0.04-0.03,0.04c-0.03,0-0.03-0.02-0.03-0.03
				C5.59,2.73,5.59,2.7,5.62,2.7z M5.55,6.88C5.53,6.84,5.48,6.82,5.52,6.77c0.01-0.01,0.03-0.04,0.05-0.01
				C5.61,6.81,5.58,6.84,5.55,6.88z M5.52,1.79c0-0.03,0-0.05,0.04-0.04c0.04,0,0.03,0.03,0.03,0.06c0,0.02-0.02,0.04-0.04,0.04
				C5.51,1.85,5.53,1.82,5.52,1.79z M5.56,2.28c0.01,0,0.03,0.02,0.03,0.03c0,0.02-0.01,0.04-0.04,0.03
				C5.53,2.32,5.51,2.31,5.52,2.3C5.52,2.29,5.54,2.28,5.56,2.28z M5.42,2.9c0.02-0.01,0.02,0.01,0.02,0.03
				c0,0.01-0.01,0.02-0.02,0.03C5.41,2.93,5.4,2.93,5.39,2.92C5.4,2.91,5.41,2.9,5.42,2.9L5.42,2.9z M5.4,3.8
				c0-0.06,0.07-0.04,0.1-0.08c0.02,0.01,0.04,0.03,0.03,0.04C5.5,3.8,5.46,3.81,5.43,3.84C5.39,3.84,5.4,3.81,5.4,3.8z M5.47,4.13
				C5.44,4.09,5.4,4.07,5.42,4.03C5.43,4.02,5.44,4,5.46,4.02C5.51,4.04,5.48,4.08,5.47,4.13z M5.33,8.73
				c0.04-0.05,0.1-0.01,0.14-0.01c0.04,0,0.05,0.05,0.09,0.05C5.56,8.83,5.49,8.86,5.45,8.84C5.43,8.83,5.42,8.82,5.4,8.81
				C5.37,8.78,5.32,8.75,5.33,8.73z M5.28,10.97c-0.02-0.03-0.04-0.05-0.04-0.1c0-0.01,0.02-0.01,0.03-0.01
				c0.04-0.01,0.05,0.04,0.07,0.06c0.01,0.02,0.01,0.04,0.01,0.06c0.03,0.01,0.06-0.02,0.08,0.02c0.01,0.03,0.01,0.06-0.02,0.07
				c-0.03,0.02-0.06,0.04-0.09,0.03c-0.04-0.03-0.01-0.07,0.02-0.1C5.32,10.99,5.3,10.98,5.28,10.97z M5.42,9.63
				c-0.03,0-0.07-0.04-0.06-0.07s0.05-0.04,0.09-0.04c0.03,0,0.07,0,0.05,0.04C5.5,9.6,5.46,9.63,5.42,9.63z M5.28,7.67
				c0.01,0.05,0.02,0.11,0,0.17C5.26,7.78,5.26,7.72,5.28,7.67z M5.28,8.55c-0.01-0.05-0.02-0.09,0-0.12
				C5.3,8.46,5.29,8.5,5.28,8.55z M5.15,2.4c0.02,0,0.03,0,0.03,0.02c0,0.02-0.02,0.04-0.04,0.04c-0.01,0-0.02-0.02-0.03-0.03
				C5.12,2.4,5.14,2.4,5.15,2.4L5.15,2.4z M5.07,6.86C5.08,6.84,5.1,6.84,5.12,6.85C5.18,6.88,5.16,6.92,5.14,7
				C5.12,6.93,5.06,6.92,5.07,6.86z M4.96,8.67c0.04-0.04,0.04-0.09,0.09-0.11c0.04,0.06,0.06,0.12-0.01,0.17
				C5.02,8.75,5,8.75,4.98,8.74C4.95,8.71,4.93,8.68,4.96,8.67L4.96,8.67z M4.94,8.19C4.95,8.22,4.92,8.23,4.9,8.23
				c-0.03,0-0.04-0.01-0.04-0.04C4.85,8.17,4.87,8.16,4.9,8.16C4.91,8.17,4.93,8.18,4.94,8.19z M4.89,1.83
				C4.9,1.82,4.91,1.85,4.91,1.87C4.92,1.9,4.9,1.91,4.88,1.91c-0.03,0-0.04-0.01-0.04-0.03C4.84,1.85,4.87,1.84,4.89,1.83
				L4.89,1.83z M4.84,8.8C4.86,8.78,4.9,8.75,4.95,8.79c0.04,0.03,0.08,0.05,0.11,0.1C5.08,8.9,5.1,8.91,5.09,8.94
				C5.08,8.97,5.06,8.95,5.03,8.95v0.07C4.97,8.98,4.91,8.94,4.86,8.9C4.84,8.87,4.81,8.83,4.84,8.8L4.84,8.8z M4.85,11.97
				c-0.04-0.04,0.02-0.08,0.04-0.12l0.01-0.01c0.09-0.03,0.09-0.03,0.06-0.12c0.12,0.01,0.11,0.01,0.06,0.13
				C5,11.9,4.98,11.93,4.95,11.96C4.92,11.98,4.88,12,4.85,11.97L4.85,11.97z M4.92,12.42c-0.06-0.05-0.03-0.12-0.07-0.17
				C4.97,12.28,4.92,12.34,4.92,12.42z M4.76,9.09C4.79,9.05,4.82,9,4.88,9.03c0.02,0.01,0.03,0,0.04,0.01
				C4.99,9.07,5,9.08,4.95,9.17C4.93,9.21,4.9,9.23,4.89,9.27c0-0.07,0-0.12-0.1-0.12C4.73,9.16,4.75,9.11,4.76,9.09z M4.82,11.39
				c0.04-0.06,0.11-0.08,0.18-0.06c-0.04,0.11-0.11,0.18-0.19,0.25C4.77,11.53,4.79,11.46,4.82,11.39L4.82,11.39z M4.88,12.84
				c-0.03-0.01-0.05-0.03-0.05-0.05c0-0.03,0.02-0.02,0.04-0.03c0.04-0.01,0.05,0.01,0.06,0.04C4.92,12.84,4.89,12.82,4.88,12.84
				L4.88,12.84z M4.9,12.67c-0.03-0.01-0.04-0.05-0.04-0.06c0.05-0.04,0.1-0.07,0.15-0.1c0.01-0.01,0.04,0.02,0.04,0.04
				C5.05,12.58,4.92,12.68,4.9,12.67L4.9,12.67z M5.04,10.28c0-0.03,0.04-0.07,0.1-0.06c0.08,0.01,0.16,0.03,0.23,0.05
				c-0.05,0.11-0.08,0.12-0.21,0.06l-0.05-0.03C5.09,10.29,5.03,10.34,5.04,10.28L5.04,10.28z M5.25,10.62H5.07
				C5.15,10.59,5.19,10.59,5.25,10.62z M5.22,13.12c-0.09-0.06-0.08-0.18-0.13-0.26C5.26,12.92,5.3,12.98,5.22,13.12z M5.37,13.11
				c-0.02,0.05-0.05,0.04-0.11,0.04c0.02-0.04,0.03-0.08,0.08-0.08C5.37,13.06,5.38,13.09,5.37,13.11L5.37,13.11z M5.44,12.93
				c-0.03,0-0.04-0.02-0.04-0.04c0-0.02,0.02-0.04,0.04-0.04c0.03,0,0.03,0.02,0.03,0.04C5.46,12.9,5.47,12.93,5.44,12.93z
				 M5.5,12.8c-0.02,0.01-0.03-0.02-0.04-0.04c0.01-0.01,0.02-0.04,0.03-0.04c0.02-0.01,0.04,0.02,0.04,0.03
				C5.52,12.77,5.51,12.8,5.5,12.8z M5.57,11.03C5.54,11.01,5.51,11,5.51,10.98c-0.01-0.04,0.04-0.05,0.06-0.06s0.04,0.03,0.04,0.04
				C5.61,11,5.59,11.01,5.57,11.03z M5.62,3.29C5.6,3.29,5.6,3.27,5.6,3.25c0-0.02,0.02-0.03,0.04-0.02c0.03,0,0.03,0.02,0.03,0.04
				C5.65,3.28,5.64,3.3,5.62,3.29z M5.75,7.5h-0.1C5.69,7.48,5.72,7.48,5.75,7.5L5.75,7.5z M5.69,9.65c-0.02,0-0.04,0.01-0.04-0.02
				C5.65,9.58,5.7,9.57,5.74,9.55C5.74,9.6,5.74,9.63,5.69,9.65L5.69,9.65z M5.77,13.29c-0.03,0-0.04-0.01-0.04-0.02
				c-0.01-0.02,0.01-0.03,0.02-0.04c0.02-0.01,0.03,0,0.03,0.02C5.78,13.27,5.78,13.29,5.77,13.29L5.77,13.29z M5.75,12.81
				c-0.01,0-0.01-0.03-0.01-0.04c0.01-0.02,0.02-0.03,0.03-0.04c0.01,0.02,0.03,0.04,0.03,0.05C5.79,12.79,5.77,12.81,5.75,12.81z
				 M5.77,12.61c-0.03,0-0.04-0.04-0.04-0.06c-0.01-0.05,0.02-0.09,0.06-0.1c0.04-0.01,0.04,0.03,0.04,0.06
				C5.84,12.55,5.83,12.6,5.77,12.61z M6.01,12.46c-0.02-0.01-0.04-0.03-0.03-0.04c0.01-0.02,0-0.05,0.04-0.05
				c0.04,0.01,0.02,0.04,0.02,0.06C6.04,12.44,6.04,12.47,6.01,12.46z M5.88,11.67c-0.02-0.02-0.03-0.04-0.03-0.06
				c0-0.03,0.17-0.1,0.2-0.09c0.01,0.01,0.02,0.01,0.03,0.02C6.07,11.58,5.9,11.69,5.88,11.67z M6.11,13.21
				c-0.01,0-0.04-0.03-0.03-0.04c0.01-0.04,0.03-0.06,0.06-0.07c0.01,0,0.03,0.02,0.04,0.03C6.17,13.16,6.14,13.19,6.11,13.21
				L6.11,13.21z M6.28,13.47c-0.04-0.04-0.06-0.08-0.08-0.12c0-0.01,0.05-0.06,0.07-0.06c0.04,0.01,0.05,0.05,0.06,0.09
				C6.35,13.43,6.29,13.44,6.28,13.47L6.28,13.47z M6.29,11.49c-0.04-0.04-0.13-0.02-0.14-0.1c0-0.04,0.02-0.11,0.08-0.12
				c0.01,0,0.13,0.18,0.13,0.19C6.35,11.47,6.33,11.5,6.29,11.49z M6.34,11.2c0,0.03-0.01,0.04-0.04,0.04
				c-0.01-0.01-0.03-0.02-0.03-0.03c0-0.03,0.03-0.03,0.04-0.04C6.32,11.17,6.34,11.18,6.34,11.2z M6.32,10.97v-0.14
				C6.34,10.9,6.34,10.94,6.32,10.97z M6.26,10c-0.02-0.04-0.01-0.08,0-0.12C6.28,9.92,6.29,9.95,6.26,10z M6.32,10.09
				c0.04-0.02,0.06-0.01,0.1-0.01C6.38,10.11,6.36,10.1,6.32,10.09z M6.43,9.31C6.37,9.26,6.27,9.37,6.21,9.27
				C6.17,9.19,6.18,9.13,6.25,9.06c0,0.07,0.01,0.13,0.01,0.19C6.3,9.25,6.33,9.22,6.37,9.21C6.36,9.17,6.38,9.15,6.39,9.13
				C6.4,9.14,6.41,9.14,6.42,9.15c0.02,0.04-0.01,0.04-0.04,0.06c0,0.03-0.01,0.06,0.04,0.07C6.45,9.28,6.43,9.32,6.43,9.31
				L6.43,9.31z M7.06,9.12c0.02,0,0.04,0.01,0.04,0.03c0,0.02-0.01,0.03-0.03,0.03c-0.03,0-0.04-0.01-0.04-0.04
				C7.02,9.13,7.04,9.13,7.06,9.12z M7.04,9.67C7.07,9.66,7.11,9.68,7.1,9.71C7.09,9.74,7.04,9.74,7.02,9.75
				c-0.05,0-0.09-0.01-0.08-0.04C6.96,9.68,7,9.68,7.04,9.67L7.04,9.67z M6.86,10.11c-0.04-0.03-0.07-0.06-0.11-0.08
				C6.67,9.98,6.7,9.95,6.76,9.93c0.01-0.04-0.05-0.1,0.01-0.14c0.04-0.02,0.05,0.04,0.03,0.1C6.79,9.9,6.79,9.92,6.78,9.93
				C6.85,9.96,6.9,10.02,6.86,10.11z M6.8,9.63c0.01,0,0.03,0.01,0.03,0.03c0,0.02-0.02,0.03-0.03,0.04
				C6.79,9.69,6.77,9.68,6.77,9.66C6.76,9.64,6.78,9.63,6.8,9.63z M6.73,9.25c0.02,0,0.03,0.04,0.03,0.06c0,0.04,0,0.1-0.02,0.14
				C6.72,9.48,6.7,9.48,6.67,9.47c-0.02-0.02-0.01-0.04,0-0.05C6.68,9.38,6.7,9.34,6.7,9.31C6.71,9.28,6.71,9.25,6.73,9.25
				L6.73,9.25z M6.67,8.99c0.04,0.04,0.07,0.08,0.01,0.13c-0.02,0.02-0.04,0.03-0.05,0C6.59,9.07,6.63,9.03,6.67,8.99z M6.57,9.48
				C6.56,9.54,6.68,9.56,6.6,9.63C6.57,9.65,6.56,9.65,6.55,9.63C6.52,9.56,6.49,9.52,6.57,9.48z M6.5,13.29
				c-0.01-0.01-0.03-0.01-0.03-0.02c-0.01-0.02,0-0.03,0.01-0.04c0.04-0.03,0.08-0.04,0.13-0.08C6.6,13.24,6.53,13.24,6.5,13.29
				L6.5,13.29z M6.73,10.48c-0.02,0.04-0.05,0.09-0.13,0.07c-0.07-0.02-0.04-0.05-0.03-0.09H6.54c0.04-0.02,0.09-0.04,0.13,0
				C6.72,10.43,6.75,10.43,6.73,10.48z M6.81,10.45c-0.04-0.04-0.08-0.08-0.07-0.15c0.03,0.01,0.04,0.01,0.04,0.01
				c0.03,0.04,0.09,0.05,0.06,0.12C6.84,10.45,6.83,10.46,6.81,10.45z M6.85,13.6c0,0-0.01,0-0.02-0.01
				c0.01-0.01,0.01-0.03,0.02-0.04c0.01,0.01,0.03,0.02,0.03,0.02C6.88,13.59,6.86,13.6,6.85,13.6z M6.95,9.31
				c0.04-0.01,0.03,0.03,0.03,0.04c0,0.02,0,0.04-0.03,0.04c-0.03,0-0.04-0.02-0.06-0.04C6.91,9.34,6.93,9.32,6.95,9.31z M6.9,10.3
				c-0.01-0.03-0.03-0.05,0.02-0.08c0.06-0.04,0.11-0.08,0.16-0.12c0.04-0.04,0.06-0.07,0.12-0.03c-0.03,0.01-0.06,0.01-0.05,0.05
				c-0.01,0.11-0.1,0.15-0.18,0.19C6.95,10.31,6.91,10.33,6.9,10.3L6.9,10.3z M7.15,13.54c-0.04-0.02-0.07-0.04-0.07-0.08
				s0.04-0.06,0.07-0.07c0.04-0.01,0.06,0.04,0.06,0.06C7.21,13.5,7.18,13.53,7.15,13.54z M7.25,9.93C7.32,9.92,7.3,9.95,7.3,9.99
				C7.26,9.98,7.28,9.94,7.25,9.93z"/>
			<path class="st0" d="M14.87,9.3c0.02,0,0.03,0.01,0.04,0.02V7.4c0-0.03-0.03-0.05-0.05-0.05v0.02c-0.01,0.05-0.06,0.08-0.08,0.13
				c-0.03-0.03-0.06-0.06-0.06-0.07c0.02-0.03,0.04-0.06,0.06-0.08h-1.01c-0.03,0-0.05,0.03-0.05,0.05c0,1.95-0.91,3.71-2.33,4.85
				c0,0.02-0.02,0.03-0.03,0.03c-1.08,0.85-2.45,1.37-3.94,1.37c-0.03,0-0.05,0.03-0.05,0.05v1.08c0,0.03,0.03,0.05,0.05,0.05h0.66
				c0.01-0.02,0.03-0.03,0.04-0.04c0.02,0,0.03,0.01,0.04,0.04h6.72c0.03,0,0.05-0.03,0.05-0.05v-2.75h-0.03
				c-0.03,0-0.07-0.02-0.06-0.05c0-0.03,0.04-0.03,0.07-0.04h0.02V9.34c-0.01,0.01-0.03,0-0.04,0.01c-0.02,0-0.04,0-0.04-0.03
				C14.83,9.31,14.85,9.3,14.87,9.3L14.87,9.3z M7.43,14.41c-0.03,0-0.04-0.01-0.04-0.04c0-0.02,0-0.04,0.03-0.04
				c0.03,0,0.05,0.02,0.06,0.06C7.48,14.41,7.45,14.41,7.43,14.41L7.43,14.41z M7.62,13.83c-0.02,0-0.02-0.01-0.03-0.03
				c0.01-0.01,0.01-0.03,0.02-0.03c0.02-0.01,0.03,0.01,0.03,0.03C7.65,13.81,7.64,13.82,7.62,13.83z M7.68,14.4
				c-0.01,0-0.03,0-0.03-0.02c0.01-0.02,0.02-0.04,0.04-0.04c0.02,0,0.04,0,0.04,0.03C7.72,14.39,7.7,14.4,7.68,14.4z M7.9,14.16
				c-0.03,0-0.04-0.02-0.04-0.04c0.01-0.01,0.03-0.04,0.04-0.03c0.02,0.01,0.04,0.03,0.04,0.04C7.92,14.15,7.92,14.17,7.9,14.16z
				 M11.37,12.4c0.01-0.02,0.01-0.06,0.04-0.05c0.02,0.01,0.04,0.03,0.04,0.06c0,0.03-0.01,0.04-0.04,0.04
				C11.39,12.44,11.36,12.42,11.37,12.4z M8.37,14.29c-0.01,0.04-0.04,0.05-0.06,0.05c-0.03,0-0.03-0.04-0.04-0.05
				c0.01-0.04,0.04-0.04,0.06-0.04C8.35,14.25,8.37,14.26,8.37,14.29z M8.51,13.7c-0.03,0.02-0.04,0-0.05-0.01
				c-0.04-0.05,0.02-0.08,0.05-0.12C8.54,13.62,8.56,13.66,8.51,13.7z M8.87,14.14c-0.03,0-0.04-0.02-0.04-0.04s0.02-0.04,0.04-0.04
				c0.02,0,0.04,0,0.04,0.03C8.92,14.12,8.9,14.14,8.87,14.14L8.87,14.14z M9.6,14.04c-0.01,0-0.04-0.01-0.04-0.02
				c0-0.04,0.01-0.05,0.03-0.05c0.02,0,0.04,0,0.04,0.03C9.64,14.03,9.62,14.04,9.6,14.04L9.6,14.04z M9.68,14.09
				c-0.02-0.04,0.02-0.05,0.04-0.06c0.03-0.01,0.04,0.02,0.05,0.04c0.01,0.04-0.03,0.06-0.04,0.09C9.69,14.14,9.68,14.1,9.68,14.09z
				 M9.82,14.3c0,0.01-0.02,0.01-0.03,0.01c-0.03-0.02-0.02-0.04-0.01-0.07C9.83,14.25,9.83,14.27,9.82,14.3z M10.26,13.12
				c-0.02-0.01-0.04-0.02-0.03-0.04c0.02-0.03,0.05-0.05,0.07-0.08c0.01,0.02,0.03,0.04,0.03,0.04
				C10.32,13.08,10.29,13.1,10.26,13.12z M10.47,12.99c-0.03,0-0.05-0.03-0.07-0.06c0.01-0.03,0.03-0.04,0.05-0.04
				c0.04,0,0.04,0.03,0.04,0.05C10.51,12.97,10.49,12.99,10.47,12.99z M10.64,12.96c0.03-0.04,0.04-0.12,0.11-0.12
				c0.03,0,0.04,0.01,0.04,0.04l-0.08,0.16C10.67,13.02,10.63,12.99,10.64,12.96z M10.78,14.75l-0.03-0.03
				c0.01,0,0.02-0.01,0.03-0.01c0.02,0,0.03,0.01,0.03,0.02C10.81,14.75,10.8,14.76,10.78,14.75z M10.83,13.88
				c0-0.02,0.01-0.03,0.03-0.03c0.02,0,0.03,0.01,0.03,0.03c0,0.02-0.01,0.03-0.03,0.03C10.83,13.91,10.82,13.9,10.83,13.88z
				 M10.92,14.69c-0.03,0-0.04,0-0.05-0.03c0-0.04,0.04-0.04,0.05-0.04c0.04-0.01,0.04,0.03,0.04,0.04
				C10.97,14.69,10.94,14.69,10.92,14.69z M11.42,14.59c-0.03-0.01-0.03-0.03-0.04-0.05c-0.01-0.02-0.01-0.04,0.02-0.04
				c0.02,0,0.04,0,0.04,0.03C11.45,14.56,11.46,14.58,11.42,14.59L11.42,14.59z M11.49,13.95c-0.03,0.03-0.03,0.11-0.11,0.08
				c-0.02,0.01-0.04,0.03-0.04,0.04c-0.03,0.03-0.05,0.04-0.08,0.02c-0.02-0.02-0.03-0.04-0.02-0.05C11.25,14,11.28,14,11.32,14
				c0.02,0,0.04,0.01,0.04,0.02c0-0.02,0-0.04,0.02-0.05c0.03-0.02,0.04-0.06,0.09-0.05C11.5,13.92,11.5,13.94,11.49,13.95z
				 M11.57,13.98c-0.02-0.01-0.04-0.01-0.05-0.04c0-0.04,0.04-0.04,0.04-0.04c0.03,0,0.05,0.03,0.05,0.05
				C11.62,13.98,11.59,13.97,11.57,13.98z M11.72,12.68c-0.01,0.04-0.04,0.06-0.05,0.09c-0.04-0.04-0.06-0.05-0.06-0.08
				c0-0.04,0.04-0.04,0.07-0.04C11.7,12.64,11.72,12.66,11.72,12.68L11.72,12.68z M11.83,13.19c-0.02,0-0.04-0.01-0.04-0.03
				c0-0.01,0.01-0.03,0.03-0.04c0.02,0,0.03,0.02,0.03,0.04C11.86,13.18,11.85,13.19,11.83,13.19z M12.17,14.15
				c-0.04,0.03-0.05-0.01-0.09-0.03c0.04-0.03,0.06-0.03,0.09-0.01C12.18,14.12,12.18,14.15,12.17,14.15z M12.35,13.13
				c-0.01,0.04-0.04,0.04-0.07,0.05c-0.02-0.02-0.05-0.04-0.05-0.06c0.01-0.04,0.04-0.04,0.07-0.04
				C12.32,13.08,12.35,13.1,12.35,13.13z M12.66,12.04c-0.03,0-0.05-0.03-0.05-0.05c0-0.03,0.04-0.04,0.06-0.04
				c0.03,0,0.04,0.03,0.04,0.05C12.71,12.02,12.69,12.04,12.66,12.04L12.66,12.04z M12.8,11.91c-0.01,0.01-0.02,0.01-0.03,0.02
				c-0.01-0.01-0.03-0.03-0.03-0.04c-0.01-0.02,0.02-0.02,0.03-0.02C12.78,11.87,12.8,11.88,12.8,11.91z M12.77,10.88
				c-0.03,0-0.04-0.02-0.04-0.04c0-0.02,0.01-0.03,0.03-0.03c0.03,0,0.04,0.01,0.04,0.04C12.8,10.87,12.79,10.88,12.77,10.88z
				 M13.06,12.02c-0.03-0.01-0.04-0.02-0.04-0.05s0.02-0.04,0.04-0.03c0.02,0,0.04-0.01,0.04,0.03
				C13.09,11.99,13.08,12.01,13.06,12.02z M13.22,10.79c-0.04,0.01-0.04-0.02-0.05-0.04c0-0.03,0.01-0.03,0.03-0.03
				c0.03,0,0.04,0.01,0.05,0.04C13.24,10.78,13.23,10.79,13.22,10.79z M13.41,10.81c-0.05,0.01-0.06-0.04-0.09-0.07
				c0.05-0.01,0.1-0.02,0.11,0.03C13.44,10.78,13.42,10.81,13.41,10.81z M14.72,8.65c0.02-0.03,0.05-0.02,0.07,0.01
				c0.03,0.05,0.01,0.09-0.04,0.12C14.75,8.73,14.68,8.7,14.72,8.65L14.72,8.65z M14.79,10.33c-0.01,0.02-0.03,0.03-0.04,0.04
				c-0.03,0-0.03-0.02-0.03-0.03c0-0.03,0.01-0.04,0.04-0.04C14.78,10.31,14.79,10.32,14.79,10.33z M14.61,9.01
				c0.03,0,0.04,0.01,0.04,0.04c0,0.02-0.02,0.03-0.04,0.03c-0.02-0.01-0.04-0.03-0.04-0.04C14.58,9.01,14.6,9.01,14.61,9.01
				L14.61,9.01z M14.56,10.8c0.06,0.01,0.08,0.07,0.12,0.1c-0.01,0.04-0.02,0.07-0.04,0.07c-0.06-0.02-0.1-0.07-0.13-0.12
				C14.51,10.82,14.54,10.79,14.56,10.8L14.56,10.8z M14.37,8.66c0.01,0,0.03,0.03,0.03,0.04c0.01,0.02,0,0.04-0.04,0.04
				c-0.02,0-0.04-0.01-0.03-0.03C14.34,8.67,14.36,8.67,14.37,8.66z M14.37,8.91c0.04,0,0.05,0.01,0.05,0.04
				c0,0.03-0.02,0.05-0.03,0.04c-0.03-0.01-0.07-0.01-0.07-0.04C14.31,8.93,14.34,8.91,14.37,8.91z M14.35,10.19
				c-0.11-0.09-0.11-0.12-0.04-0.19C14.36,10.07,14.43,10.11,14.35,10.19z M14.31,9.85c0,0.02-0.02,0.03-0.03,0.04
				c-0.03,0-0.04-0.02-0.04-0.04c0-0.02-0.01-0.04,0.02-0.04C14.29,9.8,14.31,9.82,14.31,9.85L14.31,9.85z M14.19,9.13
				c0.01-0.04,0.04-0.05,0.08-0.05s0.03,0.04,0.03,0.05c0,0.04-0.04,0.04-0.07,0.06C14.2,9.18,14.19,9.16,14.19,9.13z M14.18,12.54
				c0.03,0.01,0.06,0,0.07,0.03c0.01,0.02-0.02,0.04-0.04,0.04c-0.03,0-0.04-0.02-0.06-0.04C14.14,12.55,14.16,12.54,14.18,12.54
				L14.18,12.54z M14.11,10.14c0.01,0,0.03,0.03,0.04,0.04c-0.01,0.04-0.02,0.06-0.05,0.06c-0.01,0-0.04-0.03-0.03-0.04
				C14.06,10.18,14.09,10.16,14.11,10.14z M13.97,8.8c0.04,0,0.07,0.02,0.09,0.04c0.01,0.02-0.02,0.04-0.04,0.04
				c-0.04,0-0.06-0.03-0.07-0.06C13.93,8.8,13.95,8.8,13.97,8.8L13.97,8.8z M14.05,13.21c-0.01,0.01-0.02,0.03-0.03,0.04
				C14,13.26,14,13.24,14,13.22c0-0.02,0.01-0.04,0.04-0.03C14.04,13.19,14.06,13.19,14.05,13.21z M13.81,7.64
				c-0.04,0-0.03-0.03-0.04-0.04c-0.01-0.03,0-0.04,0.04-0.05c0.03,0,0.04,0,0.04,0.04C13.85,7.62,13.83,7.63,13.81,7.64L13.81,7.64
				z M13.9,10.25c0.02,0.05,0.07,0.05,0.1,0.09c0,0.02,0,0.04-0.03,0.04c-0.04-0.02-0.08-0.04-0.1-0.08
				C13.86,10.27,13.88,10.26,13.9,10.25z M14.11,13.77c-0.03,0.01-0.04-0.01-0.04-0.03c0-0.02,0.01-0.03,0.03-0.03
				c0.02,0,0.04,0.01,0.04,0.03C14.13,13.76,14.11,13.77,14.11,13.77z M13.94,13.48c-0.05-0.02-0.06-0.07-0.05-0.11
				c0.01-0.04,0.01-0.11,0.08-0.1c0.05,0,0.09,0.02,0.1,0.08c0,0.03,0,0.05,0.04,0.04c0.08-0.02,0.07,0.04,0.1,0.09
				C14.1,13.54,14.02,13.51,13.94,13.48z M14.13,13.21c0.01,0.04,0.05,0.06,0.02,0.1c0,0-0.02,0-0.03-0.01
				C14.1,13.28,14.09,13.25,14.13,13.21z M14.25,13.05c-0.05,0.04-0.09,0.09-0.15,0.12c-0.02,0-0.04-0.03-0.03-0.04
				c0.04-0.05,0.05-0.13,0.13-0.16c0.04-0.02,0.07-0.01,0.09,0.03C14.3,13.01,14.27,13.04,14.25,13.05z M14.45,12.62
				c-0.02,0.04-0.06,0.06-0.1,0.08c-0.04-0.07,0.05-0.05,0.06-0.1c0.01-0.02,0.02-0.05,0.04-0.04
				C14.47,12.58,14.45,12.6,14.45,12.62z M14.65,12.47c-0.04,0.03-0.06,0.08-0.1,0.06c-0.04-0.03-0.04-0.08-0.04-0.16
				c0.03,0.12,0.09,0.07,0.14,0.08c0.01-0.02-0.02-0.05,0.02-0.06c0.01,0,0.03,0.01,0.04,0.02C14.72,12.44,14.68,12.45,14.65,12.47
				C14.65,12.46,14.65,12.47,14.65,12.47z M14.72,12.89c-0.02,0-0.03-0.02-0.04-0.03c0-0.02,0.01-0.03,0.03-0.04
				c0.02,0,0.04,0.01,0.04,0.03S14.72,12.89,14.72,12.89z M14.89,11.65c0.03,0.05-0.03,0.24-0.07,0.26
				c-0.03,0.01-0.03-0.01-0.04-0.03c-0.02-0.02-0.04-0.03,0-0.05C14.8,11.78,14.86,11.72,14.89,11.65z"/>
			<path class="st0" d="M7.34,8.45v0.42c0,0.04,0.03,0.06,0.06,0.06c0.19,0,0.36-0.04,0.53-0.09c0-0.01,0.01-0.02,0.01-0.02h0.03
				C8.55,8.6,8.96,8.04,8.96,7.4c0-0.03-0.03-0.05-0.05-0.05H7.42c-0.04,0-0.07,0.04-0.07,0.07v0.95c0.02,0.01,0.03,0.03,0.03,0.04
				C7.36,8.43,7.35,8.44,7.34,8.45L7.34,8.45z M8.14,8.04C8.11,8.05,8.11,8.03,8.11,8.02c0-0.01,0.02-0.03,0.03-0.03
				C8.15,7.98,8.16,8,8.16,8.02C8.16,8.02,8.16,8.03,8.14,8.04z M8.51,8.35c-0.01,0-0.02,0.02-0.03,0.02
				c-0.02,0-0.04-0.01-0.03-0.04c0-0.02,0.02-0.02,0.04-0.02C8.5,8.31,8.52,8.32,8.51,8.35z M8.42,7.96
				C8.45,8.01,8.5,8.02,8.49,8.07c0,0.01-0.04,0.03-0.04,0.03C8.42,8.07,8.41,8.03,8.42,7.96z M8.35,7.48
				c0.02,0,0.03,0.02,0.04,0.04c0.01,0.02-0.02,0.03-0.03,0.04C8.34,7.54,8.32,7.53,8.32,7.51C8.33,7.49,8.33,7.48,8.35,7.48z
				 M8.12,7.6c0.03,0.01,0.04,0.02,0.04,0.04c0,0.02-0.03,0.04-0.04,0.04c-0.04,0-0.04-0.03-0.04-0.04C8.09,7.61,8.1,7.59,8.12,7.6z
				 M7.87,8.39c0.01,0,0.04,0.02,0.02,0.04C7.88,8.44,7.86,8.45,7.85,8.44C7.8,8.42,7.76,8.39,7.69,8.36
				C7.77,8.33,7.82,8.37,7.87,8.39L7.87,8.39z M7.68,8C7.71,8,7.71,8.03,7.7,8.03C7.69,8.05,7.69,8.07,7.67,8.07
				C7.65,8.06,7.64,8.05,7.64,8.03C7.64,8,7.67,8,7.68,8z M7.6,8.23c0.03,0.01,0.06,0.02,0.08,0.04c0.01,0.01-0.02,0.04-0.04,0.04
				c-0.03,0-0.05-0.02-0.05-0.04C7.58,8.25,7.58,8.23,7.6,8.23L7.6,8.23z M7.48,8.17c0.01,0,0.03,0,0.03,0.02
				c0,0.03-0.02,0.04-0.04,0.04S7.45,8.2,7.44,8.19C7.45,8.18,7.46,8.17,7.48,8.17L7.48,8.17z M7.36,8.5
				c0.04-0.04,0.1-0.09,0.15-0.05c0.04,0.04-0.04,0.07-0.04,0.11C7.46,8.58,7.43,8.6,7.4,8.65C7.39,8.59,7.32,8.55,7.36,8.5
				L7.36,8.5z"/>
		</g>
	</g>
</g>
</svg>
