<svg viewBox="575 290.6117 380 289.7765" width="5000" height="3812.8486842105262" xmlns="http://www.w3.org/2000/svg" xmlns:xlink="http://www.w3.org/1999/xlink" preserveAspectRatio="none"><defs></defs><style>.aLgOaV3zRcolors-0 {fill:#E35F21;fill-opacity:1;}.aLgOaV3zRcolors-1 {fill:#EEF8F7;fill-opacity:1;}.aLgOaV3zRcolors-2 {fill:#FAAB05;fill-opacity:1;}.aLgOaV3zRcolors-3 {fill:#4D4D4D;fill-opacity:1;}.aLgOaV3zRcolors-4 {fill:#6B6B6A;fill-opacity:1;}.aLgOaV3zRcolors-5 {fill:#9E9E9E;fill-opacity:1;}.aLgOaV3zRcolors-6 {fill:#FFD647;fill-opacity:1;}.aLgOaV3zRcolors-7 {fill:#8C0303;fill-opacity:1;}.companyName {fill:#EEF8F7;fill-opacity:1;}.icon3-str {stroke:#FAAB05;stroke-opacity:1;}</style><g opacity="1" transform="rotate(0 575 511.3532)">
<svg width="380" height="69.035" x="575" y="511.3532" version="1.1" preserveAspectRatio="none" viewBox="1.24 -26.8 149.72 27.2">
  <g transform="matrix(1 0 0 1 0 0)" class="companyName"><path id="id-D6z1nYkh7" d="M9.24-26.40L13.72-26.40L13.72 0L8.36 0L8.36-19.68Q8.36-20.32 8.40-20.68L8.40-20.68Q6.96-19.36 5.30-18.44Q3.64-17.52 1.96-17.20L1.96-17.20L1.24-21.84Q3.08-22.04 5.66-23.50Q8.24-24.96 9.24-26.40L9.24-26.40Z M20.56 0L20.56-26.40L32.12-26.40Q36.84-26.40 39.16-24.54Q41.48-22.68 41.48-19.20L41.48-19.20Q41.48-17 40.16-15.38Q38.84-13.76 36.44-13.36L36.44-13.36L36.44-13.32Q39.16-12.92 40.66-11.26Q42.16-9.60 42.16-7.24L42.16-7.24Q42.16-3.80 39.68-1.90Q37.20 0 32.52 0L32.52 0L20.56 0ZM25.92-15.32L31.36-15.32Q35.76-15.32 35.76-18.72L35.76-18.72Q35.76-22.12 31.36-22.12L31.36-22.12L25.92-22.12L25.92-15.32ZM25.92-4.16L32.04-4.16Q34.24-4.16 35.34-5.06Q36.44-5.96 36.44-7.64L36.44-7.64Q36.44-9.32 35.34-10.20Q34.24-11.08 32.04-11.08L32.04-11.08L25.92-11.08L25.92-4.16Z M52.96-4.44L66.88-4.44L66.88 0L47.44 0L47.44-26.40L52.96-26.40L52.96-4.44Z M82-26.80Q85.88-26.80 88.74-25.16Q91.60-23.52 93.14-20.46Q94.68-17.40 94.68-13.20L94.68-13.20Q94.68-9 93.14-5.94Q91.60-2.88 88.74-1.24Q85.88 0.40 82 0.40L82 0.40Q78.12 0.40 75.24-1.24Q72.36-2.88 70.82-5.94Q69.28-9 69.28-13.20L69.28-13.20Q69.28-17.40 70.82-20.46Q72.36-23.52 75.24-25.16Q78.12-26.80 82-26.80L82-26.80ZM82-22.28Q78.64-22.28 76.82-19.94Q75-17.60 75-13.20L75-13.20Q75-8.80 76.82-6.46Q78.64-4.12 82-4.12L82-4.12Q85.32-4.12 87.14-6.46Q88.96-8.80 88.96-13.20L88.96-13.20Q88.96-17.60 87.14-19.94Q85.32-22.28 82-22.28L82-22.28Z M122.84-7.28Q121.68-3.48 118.72-1.54Q115.76 0.40 111.64 0.40L111.64 0.40Q107.76 0.40 104.88-1.24Q102-2.88 100.46-5.94Q98.92-9 98.92-13.20L98.92-13.20Q98.92-17.40 100.46-20.46Q102-23.52 104.86-25.16Q107.72-26.80 111.56-26.80L111.56-26.80Q115.68-26.80 118.54-25.08Q121.40-23.36 122.48-19.96L122.48-19.96L117.48-17.84Q116.84-20.20 115.48-21.24Q114.12-22.28 111.80-22.28L111.80-22.28Q108.44-22.28 106.54-19.92Q104.64-17.56 104.64-13.20L104.64-13.20Q104.64-8.84 106.48-6.48Q108.32-4.12 111.68-4.12L111.68-4.12Q116.52-4.12 117.76-8.80L117.76-8.80L122.84-7.28Z M144.32 0L136.84-12.08L133.08-7.80L133.08 0L127.56 0L127.56-26.40L133.08-26.40L133.08-13.88L143.92-26.40L150.32-26.40L140.84-15.64L150.64 0L144.32 0Z"/></g>
</svg>
</g><g opacity="1" transform="rotate(0 670.0001 290.6117)">
<svg width="190" height="191.1551" x="670.0001" y="290.6117" version="1.1" preserveAspectRatio="none" viewBox="17.2910213470459 16.999900817871094 164.9980010986328 166.0010986328125">
  <g transform="matrix(1 0 0 1 0 0)" ><g><path d="M91.958 133.088h-.321c.108-.216.214-.431.321-.539v-20.698c0-.323-.214-.539-.535-.647h-.214v.108c-.108 0-.108-.108-.214-.108-1.07-.108-2.247-.323-3.211-.647 0 .647-.428 1.078-1.285.862-.642-.108-.963.431-1.391.647-.428-.862.321-1.509.535-2.156-.108 0-.214-.108-.321-.108-.749.539-1.285 1.401-2.033 1.94-.428.323-.749.647-1.285.862-.535.216-.963.431-1.499-.108-.214-.216-.321-.647-.214-.755.428-.323.963 0 1.391.108.214-.97-.321-2.372 1.391-2.587.214 0 .214-.108.108-.323-5.887-3.45-9.633-10.025-9.097-17.572.108-1.186.321-2.372.642-3.557-.108-.108-.214-.323-.321-.323-.321-.216-.428-.539-.428-.97.108-.431.321-.323.535-.323h.749a18.575 18.575 0 0 1 10.81-10.672c.108-.323.321-.431.642-.539.214-.108.214.108.214.216 1.285-.431 2.676-.647 3.96-.755 6.636-.539 12.629 2.479 16.269 7.438.214-.108.428-.216.535-.431.214.216.428.431.749.647a.972.972 0 0 1-.642.647c1.713 2.587 2.783 5.713 2.997 8.947 0 .323.321.539.642.539h20.121c.214-.539.963-.862 1.391-1.294.963-.862 1.07.323 1.605.539.214.108.214.431.108.755h6.743c-.107-.323.108-.647.214-.755.749-.755.963-1.725 1.391-2.587.108-.216.108-.431.428-.431.321 0 .214.216.321.431.428.97 1.07 2.048-.535 2.587-.214.108-.428.431.108.647.108 0 .214 0 .321.108h8.777c.428-.431.963-.755 1.819-.539 0 .216 0 .431-.108.539h13.057c.321 0 .642-.323.642-.647-.214-13.799-4.174-26.735-10.81-37.838-.428 1.294-.642 2.695-1.499 3.989-.535-.97-.535-1.617 0-2.479.428-.539.535-1.186.749-1.833.108-.216 0-.539.321-.539-.749-1.186-1.499-2.372-2.355-3.557v.216c-.108.216-.321.431-.535.647-.214-.216-.428-.431-.321-.647.108-.216.108-.647.535-.647h.108c-10.488-14.877-26.329-25.764-44.631-29.969.108.323.108.539-.108.755 0 0-.214 0-.321-.108-.214-.323-.108-.539.214-.755-6.956-1.617-14.342-2.156-21.834-1.617.535.108.642.755 1.07.647.108.539-.214.862-.321.755-.535-.216-1.285-.431-1.499-.97-.108-.323.214-.323.535-.431-2.89.216-5.887.647-8.883 1.186A90.316 90.316 0 0 0 67.338 21.3c0 .216-.214.323-.321.323s-.214-.108-.214-.108a62.967 62.967 0 0 0-6.208 2.587c.108.108.108.323.108.431 0 .323-.214.431-.535.539-.428 0-.214-.323-.321-.539v-.108c-2.355 1.078-4.602 2.372-6.743 3.665.214.323.108.647-.321.862-.108-.323-.108-.539 0-.647-15.198 9.486-26.865 24.363-32.108 42.042 0 0 .108 0 .108.108.535.539.108.862-.108 1.509-.108-.108-.214-.323-.321-.431a71.917 71.917 0 0 0-1.605 6.899 90.142 90.142 0 0 0-1.285 10.457v.216c.108.323 0 .431-.108.647-.214 5.174.108 10.349.856 15.308.108 0 .214-.108.321-.108.214.323.108.647-.214.862.321 2.264.856 4.42 1.391 6.576.535-.431 1.391-.539 1.927-.97.108-.108.428.216.428.431 0 .431-1.391 1.401-2.141 1.509 2.783 10.133 7.706 19.512 14.128 27.489.108-.108.321-.108.535-.216.321-.108.856.108.749.431 0 .323-.321.539-.535.647a71.806 71.806 0 0 0 10.81 10.564c0-.216 0-.323.108-.539 0-.108.214-.431.428-.216.428.431.214.862.214 1.401.428.323.749.647 1.177.862.214.108.428.216.535.431a74.377 74.377 0 0 0 22.797 11.427c.108-.108.214-.108.428-.108.321 0 .749.108.749.431a74.678 74.678 0 0 0 19.051 2.803c.321 0 .642-.323.642-.647v-35.035h.218v.003zm62.611-45.492c-.214 0-.321-.216-.321-.323 0-.216.214-.323.321-.323.214 0 .321 0 .428.323-.106.108-.32.215-.428.323zm2.89-1.832c-.214 0-.428-.216-.428-.431 0-.431.321-.216.535-.323.214 0 .535 0 .428.323 0 .215-.214.431-.535.431zm1.392-19.297v-1.186c.428.432.535.755 0 1.186zm4.174 15.092c-.107-.323-.321-.539-.428-.862.108 0 .214-.108.321 0 .534.215.107.539.107.862zm.213-6.791c.535 0 1.07 0 1.391-.539.108-.216.428-.431.642-.108.108.216.214.431 0 .539-.642.323-.963 1.401-2.247.97-.108 0-.749.539-.749-.323-.214-.863.536-.539.963-.539zm-4.173-12.074c.214 0 .642-.108.428.323 0 .216-.214.431-.428.431-.321 0-.428-.323-.535-.431.107-.431.321-.323.535-.323zm-1.499-4.096c.214.108.749 0 .749.539-.214.323-.428.755-.856.647-.321 0-.642-.323-.642-.755-.001-.324.428-.539.749-.431zm-2.569.646c.108.647.321 1.294 1.07 1.509.428.108.214.431 0 .755-.214.216-.428.431-.642 0-.428-.647-.963-1.294-.963-1.94-.108-.431 0-.755.214-.755.107 0 .321.324.321.431zm-.642-5.39c.214.323.428.431.535.647 0 .216-.214.431-.428.323-.214 0-.535-.108-.428-.431 0-.107.214-.323.321-.539zM81.04 49.219c0-.431-.321-.862.214-1.186.108-.108.428 0 .428.108.214.539 0 .97-.642 1.078zm4.282-.97c-.214-.647-.749-.862-.321-1.509.108-.108.321-.431.642-.108.428.539.107.97-.321 1.617zm-.214-8.085c.108-.216 0-.539.214-.539.428 0 .535.323.535.755 0 .216-.108.539-.321.431-.322-.108-.536-.324-.428-.647zm1.927 5.174c-.108-.216-.214-.323-.108-.539.428-.755.749.323 1.07 0-.214.539-.428.863-.962.539zm3.852 1.833c-.214 0-.321-.216-.428-.323.214-.216.321-.647.749-.647.214 0 .214.216.214.323 0 .431-.214.647-.535.647zm1.071 26.734c-.214 0-.535-.108-.535-.431s.321-.323.535-.431c.321-.216.321.216.428.323 0 .324-.108.539-.428.539zm-.322-34.496c0-.323.108-.431.428-.323.108 0 .428 0 .321.216 0 .216-.214.431-.428.431s-.214-.216-.321-.324zm14.77-.108c-.108-.108-.214-.216-.214-.323 0-.216.214-.323.428-.323s.214.216.214.431c-.106.108-.214.215-.428.215zm2.247 28.46c-.214 0-.321-.216-.321-.431 0-.323.214-.323.428-.323.321 0 .321.216.321.431.001.323-.213.431-.428.323zm2.249 3.342c-.321 0-.321-.216-.321-.431 0-.323.214-.539.535-.539s.214.323.214.539c-.001.323-.001.538-.428.431zm.321 3.773c-.214-.323-.214-.647 0-1.078.214.431.214.754 0 1.078zm7.063-.755c-.963-.862.108-1.078.428-1.617.215.647-.107 1.078-.428 1.617zm-.642-4.204c.108-.108.214-.323.428-.216.321.323.214.755 0 1.401-.32-.538-.748-.754-.428-1.185zm.535-1.294c-.321.108-.535-.108-.428-.431.108-.539.428-.539.856-.539.214 0 .428 0 .428.323-.106.324-.428.539-.856.647zm1.927 3.881c-.214 0-.321 0-.321-.216s.214-.323.321-.216c.214 0 .321.108.321.323.107.001-.107.001-.321.109zm1.605 7.115c-.214-.539-.108-1.078 0-1.617.107.539.214 1.078 0 1.617zm-.107-7.223c-.321 0-.428-.323-.428-.539-.108-.323.214-.431.428-.539.321-.108.428.216.428.431.001.432-.214.647-.428.647zm7.599 13.799c0 .216-.108.323-.321.323-.214-.108-.428-.216-.428-.539 0-.216.214-.216.428-.216.214.108.321.216.321.432zm-.321-1.617c-.321-.755.321-.97.321-1.509.108.539 0 .97-.321 1.509zm.107-24.471c0-.216.108-.539.321-.431.214 0 .642.108.535.539 0 .216-.108.431-.428.431-.214-.108-.428-.323-.428-.539zm1.284 7.977c.214.539.963.97.108 1.509-.321.216-.749.323-.963-.108-.322-.862.641-.862.855-1.401zm.643 7.87c0 .216 0 1.078-.642.862-.428-.216-1.177-.539-.856-1.294.321-.862.749-1.617 1.713-2.048.32.863-.215 1.617-.215 2.48zm-.107-8.409c0-.323.214-.323.428-.431.428-.108.321.216.321.431 0 .216 0 .431-.321.431s-.321-.215-.428-.431zm.535 3.019c-.321-.647.107-.862.535-1.186.321.647.107.97-.535 1.186zm-.856-4.851c-.214.216-.428.323-.642.216-.214-.108-.214-.431-.108-.539.214-.216.535-.216.749.108.535.216 1.177-.323 1.927.323-.748-.001-1.391-.001-1.926-.108zm.428-1.833c-.107-.323.214-.431.428-.431.428.108.642.539.535.97 0 .216-.321.323-.428.539-.321-.216-.428-.647-.535-1.078zm1.391-6.145c0-.431.214-.431.321-.431.214 0 .321.108.321.216 0 .216-.214.323-.428.323 0 .108-.214-.108-.214-.108zm.964 13.368c-.214.108-.428-.216-.428-.323 0-.323.214-.431.428-.539.214 0 .321.108.321.323s-.107.431-.321.539zm.748 2.263c.749.647 1.499.647 2.355.755-.214.647-.535 1.078-1.177 1.186-.428 0-.535-.216-1.178-1.941zm1.285-1.617c-.108.216-.214.431-.428.647-.214-.108-.428-.216-.428-.539s.108-.539.428-.539.536.216.428.431zm-.107-2.371c0-.216.108-.323.321-.323.214 0 .321.108.321.323-.108.108-.214.216-.321.216-.214.107-.321-.001-.321-.216zm.749 8.193c-.321-.108-.535-.216-.535-.647s.428-.431.642-.539c.321-.108.321.216.321.431 0 .431-.107.647-.428.755zm.428-8.193c-.108-.108-.214-.216-.214-.431-.108-.216.108-.323.321-.323.108 0 .321 0 .321.216.107.214-.107.322-.428.538zm.535-2.911c.108.755-.428 1.186-.856 1.617-.428.431-1.07.539-1.499.216-.428-.216-.214-.862-.107-1.294 0-.431.321-.97.535-1.401.642-1.833 1.285-2.048 3.104-.97-1.069.323-1.391.97-1.177 1.832zm1.82 1.941c-.214.216-.428.216-.535 0-.214-.431-.535-.97.214-1.401-.321.646.963.754.321 1.401zm.215-1.725c-.214-.539-.428-.97 0-1.509.108-.108.214-.216.321 0 .321.431.428.97.428 1.186.108.647.108 1.078-.321 1.186-.321 0-.428-.323-.428-.647v-.216zm-.857 6.899c-.108-.108-.321-.323-.428-.539-.214-.539 1.177-1.94 1.713-1.833.108 0 .321.216.321.323.213.216-1.178 2.049-1.606 2.049zm1.926-11.211c-.535-.647-.428-1.186.108-1.617.321-.216.535-.108.642.108.214.754-.322 1.078-.75 1.509zm1.82 7.222c-.749-.216-1.285-1.294-.963-2.479.214 1.186.214 1.294.963.755.321-.216.535-.108.749.108.321.323.214.755 0 1.078-.214.215-.322.646-.749.538zm.535-18.434c.321 0 .642.216.642.647-.108.755-.856.647-1.391 1.078-.108-.216-.428-.539-.321-.647.214-.539.535-1.078 1.07-1.078zm-.214-6.36c0-.108-.108-.216-.108-.216 0-.108.108-.216.214-.216.108-.108.214 0 .214.216 0 .108-.106.108-.32.216zm-.749 18.003c.321-.431.963-.755 1.391-1.078.535-.323.856.539 1.391.862-.856.323-1.605.647-2.247.97-.321.108-.535.216-.749-.216-.214-.215.107-.322.214-.538zm1.712 15.847c-.428-.108-.535-.539-.642-.97-.108-.323.214-.539.428-.539.428 0 .642.108.535.647.214.43-.214.862-.321.862zm.75-3.881c-.321-.647-1.07-1.078-.214-1.833.428-.323.428 0 .642.216.749.754.106 1.186-.428 1.617zm2.247 4.959c-.108-.108-.214-.216-.214-.323.321-.323.642-.539 1.177-.108-.321.323-.428.862-.963.431zm0-3.558c0-.431.321-.323.642-.323.214 0 .642 0 .535.323 0 .323-.428.431-.856.431-.214 0-.429-.107-.321-.431zm5.565-12.397c-.428.216-.749.216-1.177 0 .428-.215.857-.108 1.177 0zm-2.675 27.058c0 .431-.642.755-1.177.647-.535-.108-.963-.323-.963-.97 0-.539.428-.647.856-.539.535.215 1.391.108 1.284.862zm-1.177-29.861c.321 0 .428.108.535.431.108.216-.107.431-.321.431-.321 0-.428-.216-.428-.539 0-.107 0-.323.214-.323zm-1.606.539c.321.108.428.323.428.647.107 0 .107.108.214.108.214.323.749-.108.749.431 0 .108-.108.216-.108.216-.428.108-.642-.108-.856-.431-.428 0-.749-.108-.749-.539.001-.216.215-.432.322-.432zm-1.498-1.185c.108 0 .321 0 .321.323-.108.108-.214.323-.321.431-.108-.108-.321-.216-.321-.323-.215-.324.107-.324.321-.431zm-.75-5.391c-.428-.539-.963-.755-.535-1.294.214-.216.428-.216.642-.108.535.432-.107.756-.107 1.402zm0-8.408c0 .323-.321.431-.535.431-.214 0-.535-.108-.642-.431.108-.216.214-.431.535-.539.321-.108.642.108.642.539zm-1.391-6.576c.108-.216.321-.431.535-.647 0 0 .321.216.428.323-.107.323-.214.647-.535.647-.214.001-.536.001-.428-.323zm-.428.647s.214.323.321.431c-.108.323-.214.647-.535.647-.214 0-.321-.323-.321-.431 0-.324.214-.539.535-.647zm-.963 7.977c0-.431.108-.862.642-.862.535.108.321.539.321.755 0 .431-.321.97-.749.97-.322 0-.107-.539-.214-.863zm0 5.821c.108.323-.214.539-.535.539-.321-.431-1.07-.647-1.177-1.401 0-.108.214-.431.428-.323.428.431 1.176.539 1.284 1.185zm-1.07-16.601c.214 0 .321.108.321.323-.108.216-.214.323-.428.539-.108-.216-.321-.431-.321-.539-.001-.431.32-.323.428-.323zm-1.285 8.409c.535.431 1.177.862 1.605 1.294.321.323.535.647-.108 1.078s-.749-.108-.856-.431c-.213-.648-.855-1.295-.641-1.941zm.322 14.337c0 .431-.428.647-.749.862-.428 0-.749-.216-.749-.431 0-.431.428-.755.856-.755.32-.107.642.109.642.324zm-1.285-24.579c.214 0 .428.216.428.323 0 .216-.108.431-.321.431-.214 0-.321-.216-.321-.431 0-.107 0-.323.214-.323zm-1.392 1.078c.108-.216.321-.108.428 0 .535.647.214 1.078-.214 1.725-.642-.539-.642-1.078-.214-1.725zm-.321 24.471c.108.216-.214.539-.428.539-.428.108-.428-.431-.642-.539 0-.323.214-.539.428-.539.321 0 .642.216.642.539zm-.856-9.81c-.535-.755-.963-1.294-.963-2.156 1.177.324 1.071 1.078.963 2.156zm-.856 10.781s-.108.216-.214.216c-.428.108-.535-.323-.856-.862.641.214.963.214 1.07.646zm-4.175-16.817c.108-.431.535-.431.749-.323.214.108.749.216.749.647.428-.108.749.323 1.285.323.321 0 .321.323.108.539-.321.323-.321 1.078-1.07.755-.321-.216-.642-.431-1.07-.755h-.107c-.322-.432-.75-.647-.644-1.186zm-1.605 4.096c.535-.431.963-.97 1.391-1.401.108-.108.214-.431.428-.216.108.108.214.323.214.431-.428.862-1.07 1.401-1.713 2.048-.321.216-.321-.108-.428-.216-.106-.215-.212-.43.108-.646zm-.428 18.111c.321 0 .428.216.428.539-.108.216-.108.647-.428.647-.214-.216-.428-.431-.428-.755-.107-.216.107-.431.428-.431zm-.535-4.205c.108.431-.214.539-.535.539s-.642 0-.856-.323c.214-.216.321-.647.642-.647.214 0 .642.108.749.431zm-1.498 7.331c0-.323.214-.323.428-.323s.428.108.321.431c0 .216-.214.323-.856.323.107 0-.001-.216.107-.431zm.214-12.397c.108 0 .214.216.214.216 0 .216-.214.431-.428.539-.214 0-.214-.216-.214-.323-.108-.432.106-.54.428-.432zm.535 14.229c.321-.108.642.323.642.539-.214.539-.856.755-1.285 1.078-.214.216-.321-.108-.321-.323.107-.539.321-1.186.964-1.294zm-1.285 8.948c.108-.323.428-.647.642-.97.214.216.642.323.428.755-.214.431-.535.647-.749 1.078a.648.648 0 0 1-.321-.863zm.322 1.617c-.108.323-.214.647-.321.539-.535-.216-.963-.539-1.07-1.078 0-.323.108-.431.428-.323.534 0 .749.539.963.862zm-1.391-27.382c.428.108.428.539.535.862.108.431-.321.323-.535.647-.321-.216-.428-.539-.428-.97-.108-.323-.001-.646.428-.539zm-1.178 12.29c.108-.323.321-.755.642-.647.428.108.749.647.535 1.186-.108.323-.321.647-.749.755-.321-.324-.642-.755-.428-1.294zm-1.926-17.356c.428.108.749.323.856.862 0 .323-.214.431-.428.539-.321-.323-.749-.647-.963-.97-.001-.108.107-.539.535-.431zm-.642 9.163c.321 0 .535.216.535.647-.108.323-.214.647-.535.539-.321 0-.535-.323-.535-.647s.213-.539.535-.539zm.428 3.126c0 .108-.214.216-.321.431-.108-.216-.321-.323-.321-.431-.108-.216.108-.323.214-.323.214 0 .428.108.428.323zm-.964 4.204c.108-.216-.214-.647.321-.647.321 0 .428.323.428.647s-.108.755-.428.755-.428-.431-.321-.755zm.964 3.127c-.535.216-.856 1.186-1.499.323-.214-.323-.749-.755-.321-1.078.856-.647 1.177.647 1.82.755zm-3.426-17.68c2.247 2.372 2.247 2.372.428 3.773.215-1.293-2.355-2.156-.428-3.773zm-.428 25.657c-.108.539.535.647.108 1.078-.108.108-.321 0-.428 0-.322-.431-.108-.647.32-1.078zm-.963-14.769c.214 0 .428.216.428.539 0 .323-.108.539-.428.539-.214 0-.321-.323-.321-.755.107-.107 0-.431.321-.323zm-1.606-33.418c.214-.216.642 0 .749.216.321.539-.321.647-.535.97-.428-.432-.641-.755-.214-1.186zm-1.283 43.767c.108.108-.108.323-.214.323-.321 0-.428-.108-.535-.431 0-.108 0-.323.214-.216.213.108.535.216.535.324zm-.536-4.204c-.214.647.214 1.509-.535 2.048-.108.108-.214.108-.321.216-.321-.216-.642-.539-.535-.97.108-.647.535-1.186 1.07-1.617 0-.001.321.215.321.323zm-.428-5.498c0 .431-.321.647-.642.862-.321 0-.535-.216-.535-.431 0-.539.535-.539.749-.647.214-.323.428 0 .428.216zm-1.071-42.366c.214 0 .321.108.321.323 0 .216-.214.431-.428.323-.108 0-.214-.216-.321-.323.001-.323.214-.323.428-.323zm-.427 20.159c.214 0 .535.216.428.431-.108.216-.214.431-.535.431s-.321-.323-.428-.539c.107-.215.321-.431.535-.323zm-.322-1.186c0 .323-.321.431-.535.539-.321 0-.428-.216-.428-.539s.321-.216.428-.216c.215.001.535-.107.535.216zm-.963-15.954c.428.108.642.539.749.97.108.323-.214.539-.428.647-.535-.216-.642-.647-.749-1.078-.214-.432.107-.539.428-.539zm-.856 27.489c.749-.108.963.647 1.07 1.078.214.539-.428.862-.856 1.186-.535-.431-.963-.97-1.177-1.509-.107-.54.641-.755.963-.755zm-1.07-32.017c.321 0 .428.216.428.431s-.214.431-.428.431-.428-.216-.428-.539c-.001-.323.214-.323.428-.323zm.214 38.593c-.321.431-.214 1.186-.963 1.078-.214 0-.428-.431-.321-.755.107-.539.641-.431 1.284-.323zm-2.034-38.162c0-.108.321-.108.428-.108.321 0 .214.323.214.431 0 .862-.428 1.617-.856 2.372-.108.108-.214.216-.428.108-.321-.323-.321-.647-.321-1.186 0-.647.642-1.078.963-1.617zm-1.392 4.204c.108 0 .214.108.321.216.108.216-.108.323-.428.647-.108-.108-.108-.216-.214-.323.001-.324.107-.54.321-.54zm-1.605 0c.214 0 .535-.108.535.216 0 .323-.108.647-.535.755-.214 0-.428-.216-.428-.539 0-.324.108-.539.428-.432zm-1.819-3.126c.108 0 .428.216.428.323 0 .323-.214.539-.535.647-.214 0-.428-.216-.321-.431.106-.215.214-.431.428-.539zm-1.927 11.643c.321.108.642.216.749.539.108.216-.108.323-.321.539-.321-.216-.642-.323-.642-.755 0-.108-.107-.431.214-.323zm-2.033-.863c.321 0 .321.323.428.539 0 .216-.214.431-.321.431-.214-.108-.428-.323-.321-.647 0-.107 0-.323.214-.323zm-1.713-8.947c.214-.216.535 0 .535.216.108.539.963.97.321 1.833-.428-.539-.535-1.078-1.07-1.401.108-.001.108-.433.214-.648zm-.749-3.342c.214 0 .321.108.428.431 0 .216-.214.323-.428.323s-.428-.216-.428-.431c.107-.215.214-.323.428-.323zm-.535 5.929c.214-.108.428.216.428.323 0 .216-.214.431-.428.539-.214 0-.321-.108-.321-.323s.106-.431.321-.539zm-.963-5.39c.321-.108.428.216.428.539s-.321.431-.428.647c-.428-.216-.535-.323-.535-.755-.108-.323.321-.323.535-.431zM92.6 34.666c.214 0 .321 0 .321.539 0 0-.214.216-.321.216-.214 0-.321-.216-.321-.431-.107-.324.107-.324.321-.324zm-.428-1.294c0 .431-.214.862-.535.862s-.749-.431-.749-.862.428-.647.642-.862c.32.108.642.323.642.862zm-1.071-13.475c.214 0 .535 0 .535.431-.108.108-.214.323-.321.431-.321.108-.428-.216-.428-.431s-.107-.539.214-.431zm.107 2.048c.214-.216.428-.108.535.108.535.862-.428 1.186-.642 1.94-.75-.97-.321-1.509.107-2.048zm-.535 16.494c-.108.431-.428.647-.749.862-.535-.108-.856-.431-.856-.755.108-.323.535-.647.963-.647.32.109.642.324.642.54zm-.749-7.438c0 .216-.108.431-.321.323-.214 0-.428-.216-.321-.323.108-.108.321-.323.428-.323.321-.109.214.215.214.323zm-.642-10.457h.321c.535.431.214.755-.214 1.294-.321-.432-.535-.863-.107-1.294zm-.214 14.876c-.108.323-.214.539-.749.431-.214-.108-.535-.216-.428-.539s.214-.539.642-.431c.321.108.641.216.535.539zm-2.141-15.631c.749 0 .963.647 1.499 1.186-.856 0-1.285-.323-1.819-.755-.001.001.212-.431.32-.431zm0 17.464c.214 0 .214.216.108.431-.108.216-.214.431-.428.323-.214-.108-.321-.323-.214-.539-.001-.323.32-.323.534-.215zm-.428-5.174c0 .431-.321.647-.428 1.078-.321-.431-.642-.755-.428-1.078.107-.216.642 0 .856 0zm-1.177-10.888c.214 0 .321.216.321.431-.108.539-.428.539-.856.431-.214 0-.535 0-.535-.323.32-.539.748-.539 1.07-.539zm-.857 27.058l.321.108c.108.323.108.647-.428.755 0-.216-.214-.54.107-.863zm-2.783-1.509c-.321 0-.321-.323-.428-.431 0-.323.108-.323.321-.323.321 0 .428.108.428.431-.107.215-.213.323-.321.323zm-.963-15.632c.428.216.963.647 1.177 1.078.108.216-.428.539-.856.647-.428-.216-.856-.431-.856-1.078 0-.323.214-.754.535-.647zm-.856 2.264c0-.216.214-.323.321-.216.214 0 .214.216.214.323 0 .216-.108.431-.321.323-.214.001-.214-.106-.214-.43zm-58.331 80.743c-.214-.108-.535-.216-.535-.539 0-.216.321-.431.535-.323.214.108.428.216.428.539.001.323-.214.323-.428.323zm36.283-20.266c.108-.539.749-.539 1.177-.755.321-.108.642.216.535.647-.108.647-.749.539-1.177.755-.428-.108-.642-.324-.535-.647zm.322 22.853c.321 0 .428.216.428.431 0 .431-.428.539-.642.755-.214-.216-.321-.431-.428-.755-.001-.538.32-.431.642-.431zm-1.285-6.144c-.321 0-.642 0-.642-.431 0-.323.214-.539.535-.539.321 0 .535.216.535.539.107.431-.214.323-.428.431zm-.108 25.333c-.214 0-.214-.216-.214-.323 0-.216 0-.323.214-.323s.214.108.214.323c.001.107.001.323-.214.323zm-.748-39.886c-.214 0-.321-.216-.214-.431 0-.216.214-.323.428-.216.214 0 .321.108.214.431-.108.108-.322.216-.428.216zm.642-50.343c.214 0 .535-.108.535.323 0 .323-.214.539-.428.647-.321-.108-.535-.216-.535-.539 0-.324.214-.431.428-.431zm-.536 13.582c.214 0 .428.108.321.431-.214.431-.642.431-1.177.431.215-.43.215-1.077.856-.862zm-3.424 26.304a.841.841 0 0 1 .428-.431c.108.216.321.323.321.539 0 .108-.214.323-.321.431-.322-.216-.536-.323-.428-.539zm0 31.047c.214-.108.321 0 .428.108.108.431.963.539.642 1.186-.108.323-.214.97-.642.755-.642-.216-.321-1.078-.749-1.401-.001-.325.107-.541.321-.648zm-1.177-8.517c.214 0 .535 0 .535.323 0 .216 0 .539-.428.539-.214-.108-.428-.216-.428-.431s.213-.431.321-.431zM49.36 77.463c.108-.108.214 0 .214.108 0 .216 0 .431-.214.539s-.321-.108-.428-.431c0-.108.32-.108.428-.216zm.428 27.166c-.642.216-.963.755-1.605.431-.214-.108-.108-.323 0-.431.427-.432.855-.324 1.605 0zm-2.89-9.702c.214.108.535.323.428.647 0 .216-.214.323-.428.431-.108-.216-.428-.323-.321-.647 0-.216.107-.539.321-.431zm-.749-2.48c0-.539.535-.539.749-.647.428-.108.535.323.535.647 0 .539-.642.216-.642.539-.321-.108-.642-.215-.642-.539zm1.284 19.836c.214 0 .428.108.321.323 0 .323-.108.539-.428.539-.214 0-.321-.216-.321-.431 0-.324.107-.431.428-.431zm-.321 11.642c.108-.323.535-.431.749-.108.535.539 0 .97-.108 1.509-.641-.323-.962-.754-.641-1.401zm.107-21.991c-.108-.323.108-.431.428-.431.428 0 .749.323.856.755.108.216-.214.431-.428.539-.428-.109-.642-.432-.856-.863zm.964-12.505c.535 0 .321.431.321.647s-.108.539-.428.539c-.321 0-.428-.431-.642-.647.321-.431.427-.539.749-.539zm-.964-43.444c.214 0 .214.216.214.323s-.214.216-.321.431c-.108-.216-.214-.323-.214-.431l.321-.323zm-.642 41.719c.428.108 1.07.108 1.177.755.108.539-.535.755-.856.862-.428.108-.749-.431-.963-.862.321-.324.214-.863.642-.755zm-1.071 9.163c.428.108.642.431.749.755.108.323-.108.431-.321.647-.321-.216-.535-.539-.642-.97-.106-.216-.106-.432.214-.432zm.428 7.762c-.108.216-.214.431-.428.431-.214-.108-.321-.323-.214-.431.108-.216.214-.431.321-.431.215-.001.429.215.321.431zm-6.421-7.115c-.321.108-.642-.647-.642-.862.214-.755.963-1.078 1.605-1.186.214-.108.642.431.963.647-.642.538-1.176 1.185-1.926 1.401zm.536 24.255c0 .216-.214.539-.321.431-.214-.108-.428-.323-.321-.647 0-.108 0-.323.214-.323.32.108.32.323.428.539zm-1.178-.97c-.321 0-.321-.323-.535-.431.108-.323.214-.539.535-.539s.214.323.214.539c0 .107.107.323-.214.431zm-2.14-21.56c-.642.323-1.391.431-1.605 1.294-.108.431-.321.647-.642.323-.428-.539-1.605-.539-1.177-1.617.214-.539.642-.216 1.07 0 .749.431.963-.108.963-.539 0-.97.428-1.509 1.391-1.509.108 0 .214-.108.321-.216 1.285-.647 1.391-.647 1.605.755.108.539.214 1.186-.749.97-.643-.108-.749.431-1.177.539zm.214 8.408c0 .216-.108.431-.321.431-.108 0-.214-.216-.321-.216 0-.216 0-.431.214-.431s.428.001.428.216zm-2.997 8.624v-.647c0-.431-.963-.647-.428-1.078.642-.431.642.647 1.07.862.428.216.749.647 1.07 1.078.428.431.535.97.108 1.509s-.963.323-1.285-.216c-.428-.538-.535-.969-.535-1.508zm.428 11.535l-.108.216c-.214 0-.321-.108-.321-.323 0-.108.108-.216.214-.108.001.107.108.215.215.215zm-.963-11.643c.108.647-.108.97-.214.97-.428-.216-.749-.539-.856-.97-.108-.216.214-.539.428-.431.32 0 .642.324.642.431zm-.214-7.33c-.108-.431.214-.431.428-.323.321 0 .642.108.856.431-.108.323-.321.539-.642.539-.322 0-.536-.324-.642-.647zm2.568-5.929c-.108-.108-.428-.108-.321-.431 0-.216.214-.216.428-.108.108.108.321.216.321.323 0 .108-.214.216-.428.216zm-1.819-8.84c-.108.216-.321.431-.642.431-.214 0-.428-.108-.321-.323.108-.216.428-.431.749-.431.214 0 .214.215.214.323zm0-1.94c0-.108 0-.323.214-.323s.321.108.428.323c.108.216-.108.323-.321.431-.214 0-.321-.216-.321-.431zm1.284-3.558c.428.539.108.97.108 1.294-.001-.323-.001-.755-.108-1.294zm1.819 6.9c0-.323.214-.539.535-.539s.535.323.428.539c-.108.216-.321.431-.535.647-.214-.216-.428-.432-.428-.647zm1.285 5.605c.214-.108.535-.108.428 0-.214.431-1.07.97.214 1.186-.214.647-.856.862-1.391 1.401-.108-.97-.214-1.94.749-2.587zm0 6.9c.214 0 .428.216.321.431 0 .216-.214.431-.428.323s-.321-.323-.428-.431c.107-.431.427-.431.535-.323zm2.141-19.512c.108-.216.321-.431.642-.323.642.323 1.177.755 1.285 1.401.108.323-.108.539-.321.755-.323-.001-1.606-1.51-1.606-1.833zm.856 29.968c.321 0 .321.216.321.431 0 .323-.214.323-.428.323s-.321-.216-.321-.431.214-.323.428-.323zm.641 3.989c.749-.216.963.431 1.285 1.078-.749.108-1.391-.108-1.819-.539-.321-.216.32-.431.534-.539zm1.285 11.211c.108 0 .214.108.214.216.108.108 0 .323-.108.431-.108 0-.214-.108-.321-.216-.213-.215-.106-.323.215-.431zm.642 5.282c.108.97 0 1.617.535 2.264.214.216.535.755.214 1.186-.214.323-.321.862-.749.755-.321-.108-.321-.539-.428-.862 0-.431-.108-.755-.535-1.294-.75-.755.107-1.402.963-2.049zm.108-8.085c0-.323.321-.216.428-.216.214 0 .321.108.214.323-.108.108-.214.431-.428.431-.322-.106-.322-.322-.214-.538zm.214-10.564c-.428-.216-.642-.431-.535-.755 0-.323.108-.647.535-.647.321 0 .642.216.535.647-.107.431-.321.539-.535.755zm-.322-2.587c-.428 0-.749-.216-.642-.539.108-.323.321-.755.749-.755.321 0 .535.431.749.755-.214.431-.428.539-.856.539zm-.642-1.941v-1.725s.108 0 .108-.108v1.725c-.001.108-.108.108-.108.108zm.536-23.393c.214.108.642.323.535.755 0 .216-.214.539-.535.431-.321-.108-.428-.323-.428-.755.106-.215.32-.538.428-.431zm-.108-2.048c0-.108.214-.216.214-.216.428.108.321.539.428.755-.214-.215-.748 0-.642-.539zm.75-4.42c-.108.539-.321.755-.642.755-.214 0-.428-.108-.321-.431.214-.323.214-.755.642-.862.213-.001.427.323.321.538zm-.856-15.523c.214 0 .321.108.321.323a1.501 1.501 0 0 1-.321.431c-.108-.216-.321-.323-.321-.431-.108-.215.106-.323.321-.323zm-.429 51.098c.214.108.535.108.535.431 0 .216-.214.323-.428.539-.321-.216-.642-.216-.535-.539 0-.324.107-.647.428-.431zm-.642-43.121c.214 0 .428.108.321.323-.108.216-.108.539-.428.539-.214 0-.321-.216-.321-.431s.106-.431.428-.431zm-.107 4.744c.214 0 .321.108.321.323-.321.862-.214 1.94-.856 2.695-.214.216-.321.539-.642.431-.428-.108-.108-.539-.214-.647-.108-1.186.749-1.833.963-2.695-.001-.215.213-.107.428-.107zm-1.926-15.308c.214-.323.428-.755.856-.755.321 0 .321.216.321.431-.108.431-.428.647-.749.862-.322-.107-.536-.323-.428-.538zm-.322 22.854c.321 1.294-1.07 1.078-1.391 1.833-.963-1.186 0-1.509.642-2.048.535-.324.643-.001.749.215zM38.122 65.82c.214-.323 0-.97.749-.862.321 0 .321.323.214.431-.214.323-.214.755-.642.97-.215-.107-.535-.323-.321-.539zm-.428 21.022c.108-.323.321-.323.642-.323.214 0 .321.108.214.323-.108.216-.214.431-.535.431-.107 0-.321-.108-.321-.431zm0-15.955c-.214-.108-.321-.216-.321-.431 0-.216.108-.323.321-.323s.321.216.321.431-.214.323-.321.323zm-.749-2.803c.108-.216.428-.431.749-.108.642.431 0 .862-.108 1.294-.213-.431-.963-.539-.641-1.186zm-.322 21.992c.535-.647 1.07-1.294 1.819-1.833.321-.216.749.108 1.07.431-.856.755-1.605 1.509-2.462 2.156-.213.216-.533-.539-.427-.754zm.214 2.587c.214-.216.535-.216.642 0 .428.647-.108.97-.535 1.401-.427-.539-.641-.97-.107-1.401zm-.534-1.617c-.108.216-.214.431-.535.431-.214-.108-.428-.216-.321-.431.108-.216.321-.323.642-.323.106-.001.214.107.214.323zm-.75-6.576c0 .323-.214.431-.428.647l-2.247 1.94c-.214.108-.321.539-.749.216a.573.573 0 0 1-.108-.862c.749-.97 1.499-1.94 2.569-2.479.749-.432.642.322.963.538zm-2.89 7.546c.214 0 .321.108.321.323 0 .108-.214.216-.321.431-.108-.108-.108-.216-.214-.323 0-.323 0-.431.214-.431zm-.428-.755c0-.539.108-.647.321-.647.108 0 .428 0 .321.216 0 .216-.108.539-.428.539-.107 0-.214-.108-.214-.108zm2.034-10.241c0 .323-.108.539-.428.647-.214-.108-.535-.108-.535-.431.108-.323.108-.755.428-.755.321-.108.535.216.535.539zm-.642-3.234c-.321-.216-.642-.431-.535-.755 0-.108.321-.323.428-.323.321 0 .535.216.535.539-.107.216-.214.431-.428.539zm-.108-3.773c-.108-.323-.749-.647-.321-1.078.108-.216.535-.323.642-.216.429.54-.107.863-.321 1.294zm.214-2.371c0 .216-.108.323-.321.323-.321-.108-.428-.323-.428-.539-.108-.216.214-.216.321-.216.322-.107.428.108.428.432zm-.106-7.87c-.535.216-1.07.216-1.819 0 .748-.108 1.283-.108 1.819 0zm-2.676 15.092c0 .431-.214.539-.428.755-.428-.108-.535-.323-.535-.647 0-.431.214-.539.642-.647.321 0 .321.324.321.539zm-.964-7.33c.428 0 .428.431.428.755 0 .431 0 .862-.428.862s-.214-.539-.321-.862c.107-.324-.213-.755.321-.755zm-.428 5.498c.214.216.428.323.428.647-.108.216-.108.431-.428.323-.214-.108-.428-.216-.321-.431.001-.216.215-.324.321-.539zm-.32 6.36h-.321c-.642-.431-.214-.97-.108-1.509.749.431.643.97.429 1.509zm-.429-13.799c.214 0 .428.108.321.323 0 .323-.214.431-.321.647-.108-.216-.321-.323-.321-.539-.107-.107-.107-.431.321-.431zm.321 29.538c.856-.108 1.391.431 1.819 1.078.108.108 0 .431-.108.539-.214.216-.321 0-.535-.108-.748-.216-1.604-.323-1.176-1.509-.214 0-.428.108-.642.108-.321 0 .108.97-.535.431-.428-.323 0-.755.108-1.186.32.431 1.069-.108 1.069.647zm.536 12.289c0 .647-.428.647-.856.755-.214.108-.535-.216-.428-.539.108-.323.428-.862.749-.97.321 0 .535.431.535.754zm-4.71-16.386c-.321.108-.749.216-.963-.108-.108-.323-.108-.755.214-.97.535-.431.963-.97.642-1.833-.428.216-.963.539-1.605.431-.642 0-.749-.539-.428-.755.963-.539.963-2.048 2.462-2.156.535 0 0-.862 0-1.294.642.216 1.285.431.749 1.294-.214.323 0 .97.428 1.078 1.605.431.535 1.078.214 1.725-.108.108-.321.108-.321.431.642-.431.963.647 1.713.323-.75 1.08-1.927 1.511-3.105 1.834zm.428-10.241c-.108.539 1.391.431.535 1.294-.214.216-.428.862-.856.323-.642-.646.107-1.078.321-1.617zm-.321-1.401c0-.323.108-.431.428-.431.214 0 .428.108.321.323 0 .323-.214.539-.428.539-.107.108-.321-.108-.321-.431zm2.568 3.989c-.214.323-.321 0-.428-.108-.642-.647 0-.97.214-1.509.536.539.643 1.078.214 1.617zm-1.069-6.145c-.214-.647-.856-1.078-.321-1.725.108-.108.321-.216.428 0 .535.539.535 1.078-.107 1.725zm.107-5.282c0 .216-.108.431-.428.431-.214 0-.321-.216-.428-.431 0-.323.108-.323.321-.431.32-.001.535.107.535.431zm-.321-1.941a1.501 1.501 0 0 1-.321.431c-.321 0-.321-.216-.321-.323 0-.216.108-.431.321-.431.107 0 .427.108.321.323zm-.536-15.092c.214 0 .321.216.321.431s-.108.323-.428.431c-.108-.108-.321-.323-.321-.431-.107-.323.214-.431.428-.431zm-.214 18.865c.428-.108.749.323.642.539s-.535.431-.963.431c-.321 0-.428-.323-.535-.539.107-.539.535-.323.856-.431zm-1.605-8.085c.108-.323.535-.431.856-.216.642.539.214 1.078-.108 1.725-.534-.539-1.069-.862-.748-1.509zm.322 5.821c0 .647.108 1.294-.214 1.833-.322-.647-.536-1.186.214-1.833zm-.536 12.074c.214 0 .321.108.321.323 0 .323-.214.431-.428.647-.214-.108-.428-.216-.428-.431 0-.323.214-.539.535-.539zm-.857-4.42v1.725c-.214-.754-.106-1.186 0-1.725zm-.642-15.2c.214 0 .535.108.535.431s-.214.431-.428.539c-.321.108-.321-.323-.535-.323-.107-.647.214-.647.428-.647zm-2.247 15.093c.321.431.108.862 0 1.186v-1.186zm-1.605 10.456c-.214 0-.321-.108-.321-.323 0-.108.108-.323.214-.431.214-.108.214.108.321.323.106.216 0 .323-.214.431zm.642-2.587c-.214-.108-.428-.216-.428-.539 0-.216 0-.431.321-.431.214 0 .428.216.428.539.107.215-.001.323-.321.431zm1.284 3.018c-.214-.323-.108-.539-.108-.97.429.431.537.647.108.97zm1.391 10.134c-.108-.216-.321-.431-.535-.647-.108-.216.108-.323.321-.323.321 0 .428.216.535.431.108.107 0 .323-.321.539zm-1.391-12.397c-.108.108-.321.323-.535.216-.214-.216-.214-.431 0-.647.321-.216.749-.323.642-.97-.321-1.509.642-1.509 1.713-1.294-.108 1.293-1.071 1.94-1.82 2.695zm1.712-19.297c-.428-.108-.535-.539-.535-.97 0-.323.108-.647.535-.431.214.216.856 0 .749.647-.213.323-.427.754-.749.754zm.856 17.248c.321 0 .642.216.535.539-.108.216 0 .755-.535.755-.321-.108-.428-.323-.428-.647.108-.108-.214-.647.428-.647zm0 4.959c-.214.108-.321-.108-.321-.216 0-.216.108-.323.214-.323.108 0 .214.108.321.108.108.216.001.431-.214.431zm.322 20.482c0-.539.428-.647.642-.862.321.323.856.647.856.97.108.323-.535.431-.856.539-.321-.108-.642-.108-.642-.647zm.642 5.929c-.214-.216-.535-.539-.108-.755.856-.647.963.539 1.499.647-.428.54-.856.755-1.391.108zm1.07-3.665c-.214-.108-.321-.216-.321-.431 0-.216.214-.216.321-.216.108 0 .321 0 .321.216.107.216-.214.323-.321.431zm.964-22.207c.214.431.108.97 0 1.509 0-.646-.214-1.078 0-1.509zm.32 10.78c0 .862.214 1.294-.108 1.833-.106-.539-.106-.97.108-1.833zm.429 18.111s-.214 0-.214-.108c-.214-.323-.108-.647.321-.862.107.431.214.754-.107.97zm1.07-5.282c-.321 0-.321-.216-.428-.539-.108-.647.321-1.078.535-1.617-.108-.323-.428-.216-.642-.323-.321-.216-.321-.431-.108-.755.321-.323.428.108.535.216l.642.647c.536.538.001 2.371-.534 2.371zm2.997-2.911c-.214.647-.321 1.294-1.391 1.401.963-2.048-1.07-2.264-2.033-3.45h1.819c0-.108.108-.108.108-.216.214-.323.214-.862.642-1.078.108 0 .428.108.428.216.108.539-.535.647-.749 1.078.426.755 1.39 1.079 1.176 2.049zm.107-6.899c-.321 0-.428-.108-.535-.323-.108-.216 0-.431.321-.431.214 0 .428.216.428.323s-.214.323-.214.431zm-.107-27.597c0-.539.321-.431.642-.431s.642.108.642.539c0 .323-.214.539-.642.539-.428 0-.642-.324-.642-.647zm.749 11.211v-1.509c.214.539.321 1.078 0 1.509zm3.746 15.631c-1.605-.216-2.569-.862-3.853-1.94 1.82-.216 2.783.647 3.853 1.94zm-3.211 25.98c-.214-.216-.428-.323-.535-.431l.642-.647c.108.216.321.323.321.539 0 .324-.321.324-.428.539zm.535-4.959c.108-.216.214-.431.428-.539.321.108.321.323.321.539s-.108.539-.428.431c-.214.001-.428-.107-.321-.431zm1.82 10.996c-.535-.647-.963-1.078-.321-1.617.108-.108.214-.431.428-.108.642.539.107 1.078-.107 1.725zm.32-7.223c-.642-.108-1.927-.323-1.819-.97 0-.647 1.285-.862 2.033-1.186.214-.108 1.07.216.856 1.186-.106.431-.534 1.186-1.07.97zm.429 3.558c0-.539.535-.647.963-.755.214-.108.642-.108.642.323.108.647-.642.647-.963.97-.321-.107-.642-.323-.642-.538zm1.82 2.587c-.428.431-1.285-.108-1.391-.431-.535-.862.749-.862.963-1.509.214.754 1.284 1.185.428 1.94zm-1.285-9.594c-.214-.216-.642-.431-.214-.755.749-.755 1.177.216 1.927.431-.536.539-.964 1.186-1.713.324zm2.141 6.037c-.321 0-.535-.216-.428-.431 0-.108.214-.323.428-.431.321-.108.321.216.321.431s0 .431-.321.431zm.214-3.881c-.108-.216-.321-.323-.321-.539-.108-.431.321-.323.535-.539.108-.108.428.216.428.431-.107.323-.429.539-.642.647zm1.07 1.186c.428-.108.428.431.642.862-.108.323-.321.647-.642.647s-.535-.216-.535-.539c.106-.431.214-.863.535-.97zm.214 10.78c-.321-.108-.642-.539-.642-.647.321-.431.856-.755 1.285-.97.214-.108.428.216.428.431-.001.647-.643.754-1.071 1.186zm1.284-8.84c-.428-.323-.749-.755-.214-1.294.214-.216.108-.647.535-.647.214.216.321.539.535.755.428.539.214.97-.108 1.401-.32.324-.534-.107-.748-.215zm.322-3.989c.214 0 .535-.108.535.323s-.321.647-.642.862c-.108-.216-.321-.431-.321-.539-.108-.538.106-.646.428-.646zm.749 6.037c-.321.108-.428-.216-.535-.431 0-.216.214-.431.321-.431.214 0 .428.216.428.539 0 .108-.108.323-.214.323zm-1.071-6.899c-.535.216-.749-.323-.642-.755 0-.647.535-1.078.963-1.186.535-.108.856.539 1.07.97-.214.863-.963.863-1.391.971zm2.462 19.081c-.428-.108-.642-.323-.642-.647 0-.323.214-.647.535-.539.214 0 .642 0 .642.323.107.539-.321.647-.535.863zm3.104-2.588c-.428.431-.749.108-1.177-.216-.428-.216-.963.647-1.177.108-.321-.539.108-.755.642-.431.214.108.428.108.535.108 0-.647.749-.862.749-1.617.535.755.963 1.402.428 2.048zm.428-2.695c-.321 0-.535-.108-.535-.323 0-.323.321-.431.642-.539.428 0 .428.216.535.539-.107.431-.428.216-.642.323zm.964-10.348c.428 0 .642.216.642.539 0 .108-.214.323-.321.323-.321 0-.535-.323-.642-.647.107-.108.107-.215.321-.215zm1.177 19.296c-.642-.431-1.285-.755-1.391-1.401-.108-.431.642-.647 1.07-.647.535.108 1.07.539 1.177 1.186 0 .431-.536.646-.856.862zm.214-38.162c-.214 0-.321 0-.428-.216-.108-.216.214-.323.321-.539l.214.216c.213.432.107.539-.107.539zm.32 10.565c.321 0 .428.216.321.431 0 .216-.108.323-.321.216-.214-.108-.428-.323-.321-.539-.107-.108.107-.108.321-.108zm.108 20.159v-1.186h.108v1.186h-.108zm0-12.397c-.321 0-.428-.216-.535-.431-.108-.108 0-.323.214-.323.321 0 .535.108.642.323.107.215-.107.323-.321.431zm-.428-20.267c-.428.108-.535-.539-.642-.755-.108-.431.214-.97.642-.97.214 0 .749.216.856.647-.214.431-.428.97-.856 1.078zm1.391 8.408c-.214 0-.321-.216-.214-.323.214-.647.642-.755 1.177-.862.214 0 .321.108.321.323-.32.431-.748.647-1.284.862zm1.392 30.616c.108-.216.108-.431.428-.323.321 0 .428.323.428.539s-.108.431-.428.323c-.322 0-.322-.323-.428-.539zm1.069 2.048c-.321.108-.535-.216-.642-.431-.108-.323.214-.539.428-.539.428-.108.321.431.535.539.001.216-.107.323-.321.431zm.643-20.482c1.391.539.214 1.294.214 2.048-1.285-.754 0-1.401-.214-2.048zm0 14.014c.108-.323.428-.539.749-.647.214 0 .535.108.535.431-.108.323-.321.647-.642.647-.214 0-.535-.108-.642-.431zm1.498 7.762c0 .323-.108.539-.428.539-.321 0-.321-.323-.321-.539 0-.323.108-.431.428-.431.321-.108.321.215.321.431zm.428-46.894c-.749.216-1.177-.108-1.605-.647-.108-.216.107-.431.214-.431.749-.108 1.07.431 1.499.97l-.108.108zm.214-.754c-.108 0-.321-.216-.321-.323s.214-.323.321-.216c.108 0 .214.216.321.323 0 .216-.214.324-.321.216zm1.177 42.042c-1.819-.755-.108-1.833-.214-2.803.963.431 1.177 1.401 1.927 2.048.535.431-.108.862-.428 1.186-.856.647-.963-.107-1.285-.431zm.964 9.81c.321-.431.642-.323 1.07-.108-.321 0-.641 0-1.07.108zm1.82-24.794a.81.81 0 0 1-.535-.755c0-.324.108-.647.642-.539.428.108.428.216.428.647-.001.323-.215.539-.535.647zm-.429-18.65c-.535-.431-.642-.97-.856-1.617-.108-.323.214-.539.535-.539.642.108.963.539 1.391.97-.321.432-.427.971-1.07 1.186zm1.071-15.631a1.384 1.384 0 0 1 0-1.294c.214.432.214.863 0 1.294zm20.121 10.133c.214 0 .428.108.428.323-.108.108-.321.323-.535.431-.321.108-.321-.216-.321-.323-.106-.215.108-.323.428-.431zm-1.712-3.773c.214.647.108.97 0 1.294-.215-.323-.215-.647 0-1.294zm-.749 4.205c.108.216.108.647-.214.97-.535.539-1.177.862-1.819 1.186-.642-.323-.963-.97-1.07-1.509-.108-.539.642-.323.963-.431.428-.108.963 0 1.391-.108.321-.216.641-.432.749-.108zm1.177 35.035c.214-.108.428 0 .428.431a2.687 2.687 0 0 1-1.285 1.401c-.214.108-.428-.323-.428-.539 0-.862.75-.97 1.285-1.293zm-3.639-26.519c.108-.216.321-.323.535-.431.321 0 .321.323.428.539-.108.216-.214.431-.535.431-.214 0-.428-.216-.428-.539zm.214 17.356c0 .108-.321.323-.428.539-.428-.323-.856-.431-.963-.862-.108-.323.214-.539.535-.539.428.107.749.431.856.862zm0-21.668c0-.323.321-.539.642-.539.428 0 .642.323.642.755 0 .323-.108.647-.428.647-.321-.109-.856-.216-.856-.863zm0-13.044c.108.755.108 1.186-.108 1.617-.106-.539-.213-.97.108-1.617zm.214 6.576c.108.216-.214.431-.428.539-.642.323-.642-.323-.963-.755.642 0 1.07-.215 1.391.216zm-1.284 7.33c.214 0 .428.323.642.431 0 .431-.214.539-.428.539-.321.108-.642-.108-.642-.431-.108-.215.106-.539.428-.539zm-.108-47.109c0 .216-.214.539-.535.431s-.642-.323-.535-.97c0 0 0-.216.321-.108s.857 0 .749.647zm2.998 9.487c-.214 0-.214-.108-.214-.323 0-.216.108-.431.321-.431s.214.216.214.323c-.107.215-.107.431-.321.431zm.32-59.075c.108 0 .321.108.428.216.214.539-.108.755-.642.97 0-.539-.428-.971.214-1.186zm-.428 22.53c.108 0 .214.108.321.216 0 .216 0 .323-.108.323-.321 0-.428 0-.535-.216.001-.215.215-.323.322-.323zm-.428 30.939c0 .216-.108.431-.428.431-.108-.108-.108-.216-.214-.323.214-.108.321-.216.535-.323 0 .107.107.107.107.215zm-1.07-48.079c.214-.108.214-.755.642-.323.321.323.214.647 0 .862-.321.323-.535.647-.963 1.078-.214-.755-.214-1.294.321-1.617zm-.214 17.787c.321-.108.321.216.321.431s0 .431-.214.431-.428-.216-.428-.323c-.107-.216 0-.539.321-.539zm-.75-7.762c0 .216 0 .431-.214.431s-.321-.108-.321-.323c0-.108.108-.323.214-.431.321 0 .321.215.321.323zm-.534 5.067c0 .108-.108.216-.214.216-.214 0-.321-.108-.214-.323 0-.108.214-.216.214-.216.32 0 .214.215.214.323zm-.108-10.996c.642-.108.535.539.428.755-.214.755-.535 1.509-.856 2.264-.642-.647-.214-2.803.428-3.019zm-.963 5.606c.214 0 .321.108.321.323 0 .108-.108.216-.108.323l-.321-.323c-.106-.108.001-.215.108-.323zm-.107-6.576c0 .216-.108.431-.428.323-.108-.108-.321-.216-.321-.431.108-.216.214-.539.535-.431.214.108.214.323.214.539zm-.749-6.252c.108-.323.321-.755.642-.647.214 0 .428.431.321.755 0 .323-.108.431-.535.431-.214-.216-.535-.216-.428-.539zm.642 43.336c.856-.108 1.499.862 1.499 1.94 0 .862-.856.539-1.177.647-.642.108-.963-.431-.963-1.509-.215-.647.213-.971.641-1.078zm-1.605-28.891c.214 0 .214.323.214.431 0 .323-.214.431-.321.539-.321 0-.321-.216-.321-.323.106-.324.106-.647.428-.647zm-.856 50.666c-.214-.539-.856-.755-.321-1.294.108-.108.321-.431.642-.108.428.54-.001.863-.321 1.402zm-.322-61.77c0-.323 0-.647.428-.539.428 0 .321.323.321.755 0 .216-.214.431-.535.431-.428.108-.106-.323-.214-.647zm.428 5.929c.108 0 .321.216.321.323 0 .216-.108.431-.428.323-.214-.108-.428-.216-.321-.431 0-.107.214-.215.428-.215zm-1.711 7.547c.214-.108.214.108.214.323 0 .108-.108.216-.214.323-.108-.216-.214-.216-.321-.431.106-.108.213-.215.321-.215zm-.215 10.887c0-.755.856-.539 1.177-.97.214.108.535.323.321.539-.321.431-.749.647-1.07.97-.535 0-.428-.323-.428-.539zm.856 4.097c-.321-.539-.856-.755-.535-1.294.108-.108.214-.323.428-.108.535.216.214.755.107 1.402zm-1.605 55.733c.428-.647 1.177-.108 1.713-.108.428 0 .642.647 1.07.647-.108.755-.963 1.078-1.391.862-.214-.108-.428-.323-.642-.431-.322-.323-.964-.647-.75-.97zm-.643 27.166c-.214-.323-.535-.647-.428-1.186 0-.108.214-.108.321-.108.535-.108.642.431.856.755.108.216.108.431.108.755.321.108.749-.216.963.216.108.323.108.755-.214.862-.321.216-.749.539-1.07.323-.428-.323-.108-.862.214-1.186-.321-.108-.536-.216-.75-.431zm1.713-16.17c-.321 0-.856-.431-.749-.862s.642-.539 1.07-.539c.321 0 .856 0 .642.431-.107.538-.535.97-.963.97zM67.34 96.005c.108.647.214 1.294 0 2.048-.214-.755-.214-1.402 0-2.048zm0 10.672c-.108-.647-.214-1.078 0-1.509.214.431.108.862 0 1.509zm-1.605-74.598c.214 0 .321 0 .321.216s-.214.431-.428.431c-.108 0-.214-.216-.321-.323.108-.324.322-.324.428-.324zm-.856 54.116c.108-.216.321-.216.535-.108.749.323.535.862.214 1.725-.213-.755-.963-.863-.749-1.617zm-1.391 21.883c.428-.431.428-1.078 1.07-1.294.535.755.749 1.509-.108 2.048-.214.216-.428.323-.749.108-.321-.323-.535-.646-.213-.862zm-.214-5.713c.108.323-.214.431-.428.431-.321 0-.535-.108-.535-.431-.108-.323.108-.431.428-.431.213.107.427.215.535.431zm-.643-77.186c.214-.108.321.216.321.431.108.323-.214.539-.428.539-.321 0-.428-.108-.428-.323.001-.431.321-.539.535-.647zm-.534 84.516c.214-.216.749-.647 1.285-.108.428.323.963.647 1.285 1.186.214.108.535.323.428.647-.108.323-.428.108-.749.108v.862c-.749-.539-1.391-.97-2.033-1.509-.216-.323-.644-.754-.216-1.186zm.106 38.485c-.428-.539.214-.97.428-1.401l.108-.108c1.07-.323 1.07-.323.749-1.509 1.391.108 1.285.108.749 1.617-.214.539-.535.862-.856 1.294-.321.215-.856.431-1.178.107zm.857 5.39c-.749-.647-.321-1.401-.856-2.048 1.39.431.856 1.186.856 2.048zm-1.927-40.317c.321-.539.749-1.078 1.391-.755.214.108.321 0 .428.108.963.431 1.07.539.428 1.617-.214.431-.535.755-.749 1.186 0-.862 0-1.509-1.177-1.401-.642.107-.428-.54-.321-.755zm.75 27.92c.428-.755 1.285-.97 2.141-.755-.428 1.294-1.285 2.156-2.247 3.018-.537-.646-.323-1.508.106-2.263zm.642 17.572c-.321-.108-.642-.323-.642-.647 0-.323.214-.216.428-.323.428-.108.642.108.749.539 0 .431-.429.215-.535.431zm.32-2.048c-.321-.108-.535-.647-.428-.755a10.642 10.642 0 0 1 1.819-1.186c.108-.108.428.216.428.431-.106.324-1.604 1.617-1.819 1.51zm1.606-28.999c0-.323.535-.862 1.177-.755a11.64 11.64 0 0 1 2.783.647c-.642 1.294-.963 1.401-2.462.755l-.642-.323c-.214-.216-.963.323-.856-.324zm2.569 4.097h-2.141c.856-.324 1.391-.324 2.141 0zm-.428 30.292c-1.07-.755-.963-2.156-1.605-3.126 2.139.754 2.567 1.509 1.605 3.126zm1.819-.108c-.214.647-.642.539-1.285.431.214-.539.321-.97.963-.97.322 0 .429.323.322.539zm.856-2.156c-.321 0-.428-.216-.428-.539 0-.216.214-.431.428-.431.321 0 .321.216.321.431-.107.215 0 .539-.321.539zm.642-1.617c-.214.108-.321-.216-.428-.431.108-.108.214-.431.321-.431.214-.108.428.216.428.323 0 .215-.214.539-.321.539zm.857-21.453c-.321-.216-.642-.323-.642-.539-.108-.431.428-.647.749-.755s.428.323.428.539c0 .432-.321.54-.535.755zm.642-93.894c-.214 0-.321-.216-.321-.539 0-.216.214-.323.428-.216.321 0 .321.216.321.431-.107.216-.214.432-.428.324zm1.499 51.097H71.73c.534-.215.855-.215 1.177 0zm-.643 26.088c-.214 0-.428.108-.428-.216-.108-.647.535-.755.963-.97 0 .539 0 .971-.535 1.186zm.856 44.199c-.321 0-.428-.108-.428-.216-.108-.216.108-.323.214-.431.214-.108.321 0 .321.216.107.107.107.323-.107.431zm-.213-5.929c-.108 0-.108-.323-.108-.431.108-.216.214-.323.321-.431.108.216.321.431.321.647 0-.001-.214.215-.534.215zm.32-2.372c-.321 0-.428-.431-.428-.755-.108-.647.214-1.078.749-1.186.428-.108.535.323.535.755-.107.431-.213 1.078-.856 1.186zm2.783-1.833c-.214-.108-.535-.323-.321-.539.108-.216 0-.647.428-.647.428.108.214.431.214.755.108.216.108.539-.321.431zm-1.498-9.594a1.17 1.17 0 0 1-.321-.755c0-.323 2.033-1.186 2.355-1.078.108.108.214.108.321.216-.108.539-2.141 1.833-2.355 1.617zm2.675 18.65c-.108 0-.428-.323-.321-.539.108-.431.321-.755.749-.862.108 0 .321.216.535.323-.214.539-.534.862-.963 1.078zm2.034 3.234c-.428-.539-.749-.97-.963-1.401 0-.108.642-.755.856-.755.428.108.642.647.749 1.078.214.539-.428.646-.642 1.078zm.214-24.04c-.428-.431-1.605-.216-1.713-1.186 0-.539.214-1.294.963-1.509.108 0 1.499 2.156 1.499 2.264-.107.215-.321.539-.749.431zm.536-3.557c0 .323-.108.431-.535.431-.108-.108-.321-.216-.321-.323 0-.323.321-.323.535-.431.107-.001.321.107.321.323zm-.214-2.803v-1.725c.214.862.214 1.401 0 1.725zm-.75-11.751c-.214-.539-.108-.97 0-1.509.214.539.321.97 0 1.509zm.75 1.078c.428-.216.749-.108 1.177-.108-.429.324-.75.216-1.177.108zm1.283-9.378c-.749-.647-1.927.647-2.569-.539-.535-.97-.428-1.725.428-2.587 0 .862.108 1.617.108 2.264.535.108.856-.323 1.285-.431-.108-.431.214-.647.321-.97.108.108.214.108.321.216.214.431-.108.539-.428.755 0 .323-.108.755.428.862.32-.001.106.538.106.43zm7.492-2.372c.214 0 .428.108.428.323 0 .216-.108.323-.321.323-.321 0-.428-.108-.428-.431-.107-.107.107-.107.321-.215zm-.214 6.684c.321-.108.856.108.749.431-.108.431-.749.431-.963.539-.642 0-1.07-.108-.963-.431.214-.431.749-.431 1.177-.539zm-2.14 5.282c-.428-.323-.856-.755-1.285-.97-.963-.539-.642-.862.108-1.186.108-.539-.642-1.186.108-1.725.428-.216.642.539.321 1.186-.108.216-.108.431-.214.539.855.431 1.39 1.078.962 2.156zm-.75-5.821c.108 0 .321.108.321.323 0 .216-.214.323-.321.539-.108-.108-.321-.216-.321-.431-.107-.216.107-.323.321-.431zm-.748-4.528c.214 0 .321.431.321.755 0 .539 0 1.186-.214 1.725-.214.323-.535.323-.856.108-.214-.216-.108-.431 0-.647.108-.431.321-.862.321-1.294.106-.323.106-.647.428-.647zm-.75-3.126c.428.539.856.97.108 1.617-.214.216-.428.323-.642 0-.429-.755-.001-1.186.534-1.617zm-1.177 5.929c-.108.647 1.285.97.321 1.833-.321.216-.428.216-.642-.108-.322-.755-.642-1.294.321-1.725zm-.857 46.139c-.108-.108-.321-.108-.321-.216-.108-.216 0-.323.108-.431.428-.323.963-.539 1.605-.97-.214 1.078-1.07 1.078-1.392 1.617zm2.784-34.065c-.214.539-.642 1.078-1.499.862-.856-.216-.428-.647-.321-1.078h-.535c.535-.216 1.07-.539 1.605 0 .535-.323.964-.323.75.216zm.962-.324c-.535-.431-.963-.97-.856-1.833.321.108.428.108.428.108.321.431 1.07.647.749 1.509.001.216-.106.324-.321.216zm.429 38.162s-.108 0-.214-.108c.108-.108.108-.323.214-.431.108.108.321.216.321.216 0 .215-.214.323-.321.323zm1.177-51.96c.428-.108.321.323.321.539s0 .539-.321.539-.535-.216-.749-.539c.32-.216.536-.431.749-.539zm-.535 11.966c-.108-.323-.321-.647.214-.97.749-.431 1.285-.97 1.927-1.509.428-.431.749-.862 1.391-.323-.321.108-.749.108-.642.647-.108 1.294-1.177 1.833-2.141 2.264-.214-.001-.643.214-.749-.109zm2.89 39.347c-.428-.216-.856-.539-.856-.97s.428-.755.856-.862c.535-.108.749.431.749.755-.001.538-.321.861-.749 1.077zm1.284-43.875c.749-.108.535.323.535.755-.428-.108-.214-.647-.535-.755z" data-color="1" class="aLgOaV3zRcolors-0"></path><path d="M181.754 115.732c.214 0 .321.108.428.216V92.771c0-.323-.321-.647-.642-.647v.216c-.108.647-.749.97-.963 1.617-.321-.323-.749-.755-.749-.862.214-.323.428-.755.749-.97h-12.094c-.321 0-.642.323-.642.647 0 23.716-10.917 44.953-27.828 58.859 0 .216-.214.323-.321.323-12.843 10.349-29.219 16.601-46.986 16.601-.321 0-.642.323-.642.647v13.152c0 .323.321.647.642.647h7.92c.108-.216.321-.323.428-.431.214 0 .321.108.428.431h80.165c.321 0 .642-.323.642-.647v-33.311h-.321c-.321 0-.856-.216-.749-.647 0-.323.428-.323.856-.431h.214v-31.693c-.107.108-.321 0-.428.108-.214 0-.428 0-.428-.323-.107-.217.107-.325.321-.325zm-88.726 62.094c-.321 0-.535-.108-.535-.539 0-.216 0-.539.321-.539s.642.216.749.755c0 .323-.321.323-.535.323zm2.247-7.115c-.214 0-.214-.108-.321-.323.108-.108.108-.323.214-.323.214-.108.321.108.321.323.107.107.001.215-.214.323zm.643 6.899c-.108 0-.321 0-.321-.216.108-.216.214-.431.428-.539.214 0 .428 0 .428.323-.001.324-.215.432-.535.432zm2.675-2.911c-.321 0-.428-.216-.535-.539.108-.108.321-.431.428-.323.214.108.428.323.428.539-.107.216-.107.431-.321.323zm41.42-21.344c.108-.216.108-.755.535-.647.214.108.428.323.428.755 0 .323-.108.539-.535.539-.214-.108-.535-.324-.428-.647zm-35.854 22.961c-.108.431-.428.647-.749.647s-.321-.431-.428-.647c.108-.431.428-.431.749-.431.214 0 .534.108.428.431zm1.712-7.115c-.321.216-.535 0-.642-.108-.428-.647.214-.97.642-1.509.321.647.643 1.078 0 1.617zm4.281 5.283c-.321 0-.428-.216-.428-.539s.214-.539.535-.539c.214 0 .535 0 .535.323 0 .539-.214.755-.642.755zm8.777-1.186c-.108 0-.428-.108-.428-.216 0-.431.108-.647.321-.647.214 0 .428 0 .428.323.107.432-.107.54-.321.54zm.856.539c-.214-.431.214-.647.535-.755s.535.216.642.431c.108.539-.321.755-.535 1.078-.428-.107-.535-.538-.642-.754zm1.713 2.587c0 .108-.214.108-.321.108-.321-.216-.214-.539-.108-.862.535.107.535.431.429.754zm5.243-14.337c-.214-.108-.428-.216-.321-.431.214-.323.642-.647.856-.97.108.216.321.431.321.539-.106.43-.427.646-.856.862zm2.57-1.51c-.321 0-.642-.323-.856-.755.108-.323.321-.539.642-.539.428 0 .535.323.535.647.107.324-.107.647-.321.647zm2.033-.431c.321-.539.428-1.401 1.285-1.401.321 0 .535.108.428.431l-.963 1.94c-.428-.215-.964-.539-.75-.97zm1.605 21.776l-.321-.323c.108 0 .214-.108.321-.108.214 0 .321.108.321.216.001.215-.107.323-.321.215zm.642-10.565c0-.216.108-.323.321-.323.214 0 .321.108.321.323 0 .216-.108.323-.321.323-.321.001-.427-.107-.321-.323zm1.071 9.81c-.321 0-.535 0-.642-.323 0-.539.428-.539.642-.539.428-.108.428.323.428.539.107.323-.214.323-.428.323zm5.993-1.185c-.321-.108-.321-.323-.428-.647-.108-.216-.108-.431.214-.431.214 0 .535 0 .535.323.001.323.107.647-.321.755zm.75-7.762c-.321.323-.321 1.294-1.285.97-.214.108-.428.323-.535.431-.321.323-.642.539-.963.216-.214-.216-.321-.431-.214-.647.214-.431.535-.431.963-.431.214 0 .428.108.535.216 0-.216 0-.431.214-.647.321-.216.535-.755 1.07-.647.322.108.322.431.215.539zm.963.323c-.214-.108-.535-.108-.642-.539 0-.431.428-.431.535-.539.321 0 .642.323.642.647.107.431-.321.324-.535.431zm1.819-15.739c-.108.431-.428.755-.642 1.078-.535-.431-.749-.647-.749-.97 0-.539.428-.539.856-.539.321-.108.535.108.535.431zm1.285 6.145c-.214 0-.428-.108-.428-.323 0-.108.108-.323.321-.431.214 0 .321.216.321.431.214.215 0 .323-.214.323zm4.066 11.643c-.428.323-.642-.108-1.07-.323.428-.323.749-.323 1.07-.108.108.107.108.431 0 .431zm2.141-12.398c-.108.431-.535.431-.856.647-.214-.216-.642-.431-.642-.755.108-.431.535-.431.856-.431.322 0 .642.216.642.539zm3.746-13.151c-.321 0-.642-.323-.642-.647 0-.323.428-.539.749-.539s.535.323.428.647c.001.323-.213.539-.535.539zm1.606-1.617a1.565 1.565 0 0 1-.321.216c-.107-.108-.321-.323-.321-.431-.108-.216.214-.216.321-.216.106-.001.321.107.321.431zm-.321-12.505c-.321 0-.428-.216-.535-.431 0-.216.108-.323.321-.323.321 0 .428.108.535.431 0 .215-.107.323-.321.323zm3.424 13.798c-.321-.108-.535-.216-.535-.647s.214-.431.535-.323c.214 0 .535-.108.535.323-.107.324-.213.539-.535.647zm1.927-14.876c-.428.108-.428-.216-.642-.431 0-.323.107-.323.321-.323.321 0 .535.108.642.431.001.215-.213.323-.321.323zm2.248.215c-.642.108-.749-.431-1.07-.862.642-.108 1.177-.216 1.285.323.213.216-.001.539-.215.539zm15.734-26.195c.214-.323.642-.216.856.108.321.647.108 1.078-.535 1.509-.001-.647-.857-.97-.321-1.617zm.748 20.374c-.108.216-.321.323-.428.431-.321 0-.321-.216-.321-.323 0-.323.108-.431.428-.431.215.108.321.215.321.323zm-2.141-15.954c.321 0 .535.108.535.431 0 .216-.214.323-.428.323-.214-.108-.428-.323-.428-.539.001-.215.215-.215.321-.215zm-.534 21.668c.749.108.963.862 1.391 1.186-.108.431-.214.862-.535.862-.749-.216-1.177-.862-1.499-1.509.001-.324.429-.647.643-.539zm-2.248-25.98c.108 0 .321.323.321.431.107.216 0 .539-.428.539-.214 0-.428-.108-.321-.323 0-.432.214-.54.428-.647zm-.107 3.126c.428 0 .642.108.642.539 0 .323-.214.647-.321.539-.321-.108-.856-.108-.856-.539-.107-.324.214-.539.535-.539zm-.214 15.523c-1.285-1.078-1.285-1.401-.428-2.264.535.755 1.392 1.294.428 2.264zm-.428-4.204c0 .216-.214.323-.321.431-.321 0-.428-.216-.428-.431 0-.216-.108-.431.214-.539.32 0 .535.215.535.539zm-1.498-8.732c.108-.539.535-.647.963-.647.428 0 .321.431.321.647 0 .539-.535.539-.856.755-.322-.108-.428-.324-.428-.755zm-.108 41.396c.321.108.749 0 .856.323.108.216-.214.539-.428.539-.321 0-.535-.216-.749-.431-.107-.324.107-.431.321-.431zm-.748-29.107c.108 0 .321.323.428.431-.108.431-.214.755-.642.755-.108 0-.428-.323-.321-.431-.108-.324.213-.539.535-.755zm-1.713-16.278c.428 0 .856.216 1.07.539.108.216-.214.431-.535.539-.428 0-.749-.323-.856-.755-.215-.323.107-.323.321-.323zm.963 53.577c-.108.108-.214.323-.321.431-.321.108-.321-.108-.321-.323 0-.216.107-.431.428-.323.107-.108.321-.108.214.215zm-2.89-67.591c-.428 0-.321-.323-.428-.539-.108-.323 0-.539.428-.647.321 0 .428 0 .428.431 0 .432-.214.54-.428.755zm1.07 31.586c.214.647.856.647 1.177 1.078 0 .216 0 .539-.321.431-.535-.216-.963-.431-1.177-.97-.107-.323.107-.431.321-.539zm2.462 42.689c-.321.108-.428-.108-.535-.323 0-.216.108-.323.321-.323.214 0 .428.108.535.323.001.215-.213.323-.321.323zm-2.033-3.45c-.642-.216-.749-.862-.642-1.294.108-.539.108-1.294.963-1.186.642 0 1.07.216 1.177.97 0 .323 0 .647.428.539.963-.216.856.539 1.177 1.078-1.177.648-2.14.217-3.103-.107zm2.355-3.234c.108.431.642.755.214 1.186 0 0-.214 0-.321-.108-.322-.323-.429-.646.107-1.078zm1.391-2.048c-.642.431-1.07 1.078-1.819 1.401-.214 0-.428-.323-.321-.431.535-.647.642-1.617 1.499-1.94.428-.216.856-.108 1.07.323.213.216-.215.539-.429.647zm2.355-5.174c-.214.539-.749.755-1.177.97-.428-.862.642-.647.749-1.186.108-.216.214-.647.535-.431.213.108-.107.431-.107.647zm2.461-1.833c-.428.323-.749.97-1.177.755-.535-.323-.535-.97-.428-1.94.321 1.401 1.07.862 1.713.97.108-.216-.214-.647.214-.755.108 0 .321.108.428.216-.001.431-.429.539-.75.754 0-.108 0 0 0 0zm.749 5.067c-.214 0-.321-.216-.428-.323 0-.216.108-.323.321-.431.214 0 .428.108.428.323s-.213.431-.321.431zm2.033-14.985c.321.647-.321 2.911-.856 3.126-.321.108-.321-.108-.428-.323-.214-.216-.428-.323 0-.647.321-.646.964-1.293 1.284-2.156z" data-color="1" class="aLgOaV3zRcolors-0"></path><path d="M91.958 105.491v5.067c0 .431.321.755.749.755 2.247 0 4.281-.431 6.315-1.078 0-.108.108-.216.108-.216h.321c6.85-2.695 11.773-9.486 11.773-17.356 0-.323-.321-.647-.642-.647H92.816c-.535 0-.856.431-.856.862v11.535a.593.593 0 0 1 .321.539c-.109.324-.217.431-.323.539zm9.525-4.959c-.321.108-.428-.108-.428-.323 0-.108.214-.323.321-.323.214-.108.321.108.321.323 0 0 0 .215-.214.323zm4.388 3.665c-.108 0-.214.216-.321.216-.214 0-.428-.108-.321-.431 0-.216.214-.216.428-.216.107 0 .321.108.214.431zm-1.07-4.635c.321.539.963.647.856 1.294 0 .108-.428.323-.428.323-.428-.323-.536-.755-.428-1.617zm-.856-5.929c.214 0 .321.216.428.431.108.216-.214.323-.321.431-.214-.108-.428-.216-.428-.431.106-.215.106-.431.321-.431zm-2.676 1.509c.321.108.535.216.535.539 0 .216-.321.431-.535.431-.428 0-.428-.323-.428-.539 0-.323.106-.539.428-.431zm-2.997 9.595c.108 0 .428.216.214.431-.108.216-.321.323-.535.216-.535-.323-1.07-.647-1.819-.97.963-.432 1.497.107 2.14.323zm-2.248-4.744c.321 0 .321.323.214.431-.108.216-.108.431-.428.431-.214-.108-.321-.216-.321-.539.001-.323.321-.323.535-.323zm-.963 2.803c.321.108.749.216.963.431.108.108-.214.539-.535.539s-.642-.216-.642-.539c-.107-.215-.107-.431.214-.431zm-1.498-.755c.108 0 .321 0 .321.216 0 .323-.214.431-.428.431s-.214-.216-.321-.323c.107-.216.214-.324.428-.324zm-1.391 3.989c.428-.539 1.177-1.078 1.819-.647.535.431-.428.862-.535 1.294-.108.323-.428.647-.856 1.186-.108-.755-.964-1.186-.428-1.833z" data-color="1" class="aLgOaV3zRcolors-0"></path></g></g>
</svg>
</g></svg>